<?xml version="1.0" encoding="UTF-8"?>
<svg version="1.1" xmlns="http://www.w3.org/2000/svg" width="600" height="600">
<path d="M0 0 C1.16877686 0.09619629 2.33755371 0.19239258 3.54174805 0.29150391 C4.431604 0.36804199 5.32145996 0.44458008 6.23828125 0.5234375 C6.30808285 12.66807193 6.36124483 24.81265788 6.39371777 36.95745277 C6.40931056 42.59800984 6.43043107 48.2384287 6.46459961 53.87890625 C6.49742218 59.33190629 6.51518217 64.78477417 6.52291298 70.23786545 C6.52841566 72.30846611 6.53915989 74.37906031 6.55547142 76.44960403 C6.63453441 86.91069852 6.54942996 96.67196019 3.88423157 106.84896851 C3.0817652 109.71290916 3.0817652 109.71290916 3.23828125 113.5234375 C2.57828125 113.5234375 1.91828125 113.5234375 1.23828125 113.5234375 C1.10099609 114.52310547 1.10099609 114.52310547 0.9609375 115.54296875 C0.03536648 119.36032383 -1.57237756 122.71922013 -3.32421875 126.2109375 C-3.67919434 126.91919678 -4.03416992 127.62745605 -4.39990234 128.35717773 C-7.51089088 134.37417782 -11.26873298 139.45466994 -15.76171875 144.5234375 C-16.2515625 145.14347656 -16.74140625 145.76351562 -17.24609375 146.40234375 C-32.35515232 165.37354931 -57.55395699 175.28947493 -81.01171875 178.3359375 C-86.94057341 178.787269 -92.86266274 178.1244385 -98.76171875 177.5234375 C-98.76171875 176.2034375 -98.76171875 174.8834375 -98.76171875 173.5234375 C-99.42171875 173.1934375 -100.08171875 172.8634375 -100.76171875 172.5234375 C-100.10171875 172.5234375 -99.44171875 172.5234375 -98.76171875 172.5234375 C-98.76615997 171.53753128 -98.7706012 170.55162506 -98.775177 169.5358429 C-98.81591211 160.19515553 -98.84579323 150.85448645 -98.86534309 141.51373005 C-98.87573208 136.71281005 -98.88980088 131.91196238 -98.91259766 127.11108398 C-98.93450173 122.46857694 -98.946324 117.82613899 -98.95147324 113.18358421 C-98.95513773 111.42197776 -98.96229248 109.66037462 -98.97317886 107.89879799 C-99.05413935 94.24154795 -98.42019238 81.50197608 -93.32421875 68.6484375 C-92.8746582 67.46507812 -92.8746582 67.46507812 -92.41601562 66.2578125 C-91.55292732 64.00367297 -90.66458298 61.76190577 -89.76171875 59.5234375 C-89.49955566 58.86682129 -89.23739258 58.21020508 -88.96728516 57.53369141 C-87.62250325 54.26506399 -86.20502981 51.42088125 -84.01171875 48.6484375 C-83.48964844 47.98070312 -82.96757812 47.31296875 -82.4296875 46.625 C-81.87925781 45.93148437 -81.32882813 45.23796875 -80.76171875 44.5234375 C-80.20097656 43.78867187 -79.64023438 43.05390625 -79.0625 42.296875 C-73.81880118 35.43882396 -68.65327251 28.7934492 -61.76171875 23.5234375 C-61.43171875 22.8634375 -61.10171875 22.2034375 -60.76171875 21.5234375 C-59.046875 20.4453125 -59.046875 20.4453125 -56.82421875 19.2734375 C-53.50182511 17.49488769 -50.31270516 15.6128233 -47.13671875 13.5859375 C-38.12264015 8.14664901 -28.0263711 4.57974189 -17.8359375 2.06640625 C-15.72081325 1.58887378 -15.72081325 1.58887378 -13.76171875 0.5234375 C-9.01789745 -0.53074501 -4.84870298 -0.4068417 0 0 Z " fill="#101211" transform="translate(229.76171875,245.4765625)"/>
<path d="M0 0 C1.05293243 -0.00983414 2.10586487 -0.01966827 3.19070435 -0.02980042 C4.91532646 -0.01529846 4.91532646 -0.01529846 6.67478943 -0.00050354 C7.88975098 -0.00590652 9.10471252 -0.01130951 10.35649109 -0.01687622 C13.68522231 -0.02724026 17.01295953 -0.01966258 20.34160352 -0.00316501 C23.82489757 0.01068907 27.30816173 0.00422513 30.79147339 0.0007019 C36.63987049 -0.00199959 42.48806227 0.0114712 48.33641052 0.03465271 C55.09958842 0.06127468 61.86242333 0.06300548 68.62563568 0.05126435 C75.13115427 0.04048939 81.63654869 0.04667055 88.14205742 0.06081963 C90.91115692 0.06658068 93.68016559 0.06649588 96.44926643 0.06175423 C100.31363558 0.0561007 104.17766071 0.07529187 108.04197693 0.09715271 C109.76963539 0.09040024 109.76963539 0.09040024 111.53219604 0.08351135 C112.58230865 0.09341599 113.63242126 0.10332062 114.71435547 0.11352539 C115.6281878 0.11595529 116.54202013 0.11838518 117.48354435 0.12088871 C120.25809215 0.57766027 121.15407325 1.24633903 122.79368591 3.50120544 C123.15444946 6.4055481 123.15444946 6.4055481 123.13426208 9.99217224 C123.13470016 10.64609955 123.13513824 11.30002686 123.1355896 11.97377014 C123.1335013 14.13295967 123.1101698 16.2913705 123.08665466 18.45042419 C123.08105882 19.94828873 123.07678867 21.44615877 123.0737915 22.94403076 C123.06234171 26.88479291 123.03287369 30.8252229 122.99967957 34.76585388 C122.9689814 38.78761807 122.95528673 42.80943597 122.94017029 46.83128357 C122.90800384 54.72140989 122.85680619 62.61126634 122.79368591 70.50120544 C119.83549747 70.83586919 116.87715004 71.16899551 113.91868591 71.50120544 C113.0769281 71.59659607 112.23517029 71.69198669 111.36790466 71.79026794 C110.5622406 71.88050232 109.75657654 71.97073669 108.92649841 72.06370544 C107.81105652 72.18938904 107.81105652 72.18938904 106.67308044 72.31761169 C104.79368591 72.50120544 104.79368591 72.50120544 102.79368591 72.50120544 C102.46368591 73.16120544 102.13368591 73.82120544 101.79368591 74.50120544 C101.79368591 73.84120544 101.79368591 73.18120544 101.79368591 72.50120544 C89.99255094 75.6242969 78.60682783 78.71776895 67.79368591 84.50120544 C66.25841248 85.3191156 66.25841248 85.3191156 64.69212341 86.15354919 C54.93569113 91.59986139 45.8167158 98.22241809 38.79368591 107.00120544 C36.79368591 109.50120544 36.79368591 109.50120544 34.23118591 112.00120544 C31.39404916 114.9110893 29.59819527 117.89218672 27.79368591 121.50120544 C27.13368591 121.50120544 26.47368591 121.50120544 25.79368591 121.50120544 C25.54618591 122.20245544 25.29868591 122.90370544 25.04368591 123.62620544 C24.63118591 124.57495544 24.21868591 125.52370544 23.79368591 126.50120544 C23.3438031 127.53890076 22.89392029 128.57659607 22.43040466 129.64573669 C19.40501671 132.9221198 18.80158994 132.95461559 14.54759216 133.19261169 C12.48337739 133.18066447 10.41915076 133.13651597 8.35618591 133.06370544 C7.31913513 133.06177185 6.28208435 133.05983826 5.21360779 133.05784607 C-4.28093366 132.89320084 -4.28093366 132.89320084 -8.20631409 129.50120544 C-9.44250373 127.02882615 -9.34035038 125.38426154 -9.35348511 122.61805725 C-9.36064041 121.58614761 -9.36779572 120.55423798 -9.37516785 119.49105835 C-9.37785675 118.35439224 -9.38054565 117.21772614 -9.38331604 116.0466156 C-9.38988724 114.85305954 -9.39645844 113.65950348 -9.40322876 112.42977905 C-9.4195828 109.15080654 -9.43119018 105.87186741 -9.43943429 102.59286547 C-9.44458382 100.54484714 -9.45065953 98.49683334 -9.45694542 96.44881821 C-9.47599637 90.04265675 -9.49022844 83.63650682 -9.49855739 77.23032248 C-9.50833451 69.8322414 -9.5346664 62.43445916 -9.57505828 55.03648341 C-9.60519961 49.32007707 -9.6200243 43.60375651 -9.6233384 37.88727224 C-9.62569093 34.4720779 -9.63467703 31.05720285 -9.65979958 27.64209366 C-9.68402887 23.83267888 -9.68325541 20.02405184 -9.67628479 16.21458435 C-9.68909485 15.08196671 -9.70190491 13.94934906 -9.71510315 12.78240967 C-9.70815933 11.74486038 -9.70121552 10.7073111 -9.69406128 9.63832092 C-9.69644963 8.73756144 -9.69883799 7.83680195 -9.70129871 6.90874672 C-8.59173448 1.51196963 -5.13622572 0.0011758 0 0 Z " fill="#2A8FF8" transform="translate(113.20631408691406,165.49879455566406)"/>
<path d="M0 0 C8.26490589 5.84374481 12.78844278 12.5321842 15.53515625 22.2421875 C16.6475321 28.84166102 15.3694158 35.51888555 14 42 C13.34 42 12.68 42 12 42 C11.855625 43.010625 11.71125 44.02125 11.5625 45.0625 C10.00630966 50.51468459 5.5393944 53.0327861 1 56 C0.40316406 56.41507813 -0.19367188 56.83015625 -0.80859375 57.2578125 C-5.35117805 59.98943335 -10.13845695 60.67648979 -15.3125 61.375 C-16.01898682 61.47208252 -16.72547363 61.56916504 -17.45336914 61.66918945 C-21.3188828 62.10466844 -22.6608215 62.226119 -26 60 C-28.32108669 59.29187186 -30.65377147 58.61975848 -33 58 C-33 57.34 -33 56.68 -33 56 C-33.556875 55.773125 -34.11375 55.54625 -34.6875 55.3125 C-37.65253447 53.6296426 -39.65353689 51.46378626 -42 49 C-42.70125 48.443125 -43.4025 47.88625 -44.125 47.3125 C-49.35150027 40.866483 -49.54187785 32.31188078 -49.3515625 24.3359375 C-48.85114549 19.58753609 -47.46322354 16.05135451 -45 12 C-44.649375 11.37609375 -44.29875 10.7521875 -43.9375 10.109375 C-39.77189446 3.45597726 -32.6037639 -1.08032526 -25.21875 -3.52734375 C-16.41135318 -5.40356737 -7.92396867 -4.23481559 0 0 Z " fill="#101211" transform="translate(304,169)"/>
<path d="M0 0 C3.98204745 4.3939834 4.34580174 9.00042404 4.2890625 14.75 C3.66512829 19.60656898 0.34545006 22.72165066 -3 26 C-2.51789063 26.38671875 -2.03578125 26.7734375 -1.5390625 27.171875 C-0.90742188 27.69265625 -0.27578125 28.2134375 0.375 28.75 C1.00148438 29.26046875 1.62796875 29.7709375 2.2734375 30.296875 C4.89164909 32.87954526 5.87546698 34.92933946 6.30078125 38.5859375 C6.32794329 45.0505026 6.12686287 49.72311088 1.453125 54.62109375 C-4.5240794 60.13546153 -10.18007015 61.30909058 -18.2421875 61.1953125 C-18.92418213 61.19329834 -19.60617676 61.19128418 -20.30883789 61.18920898 C-22.83096138 61.17882757 -25.35298819 61.15090558 -27.875 61.125 C-36.351875 61.063125 -36.351875 61.063125 -45 61 C-45.33 38.89 -45.66 16.78 -46 -6 C-8.82647944 -7.28184554 -8.82647944 -7.28184554 0 0 Z M-31 6 C-31 10.95 -31 15.9 -31 21 C-28.22858283 21.08089542 -25.45952181 21.14044062 -22.6875 21.1875 C-21.50897461 21.22520508 -21.50897461 21.22520508 -20.30664062 21.26367188 C-19.54931641 21.27333984 -18.79199219 21.28300781 -18.01171875 21.29296875 C-17.31522217 21.3086792 -16.61872559 21.32438965 -15.90112305 21.34057617 C-13.41896482 20.89591061 -12.54806974 19.94732283 -11 18 C-10.44404088 15.29651254 -10.56827156 12.7210253 -11 10 C-12.54338091 7.82523599 -13.63665273 7.18167363 -16 6 C-18.55387492 5.92826194 -21.07276761 5.90712268 -23.625 5.9375 C-26.05875 5.958125 -28.4925 5.97875 -31 6 Z M-31 32 C-31 37.61 -31 43.22 -31 49 C-28.463125 49.061875 -25.92625 49.12375 -23.3125 49.1875 C-22.12781128 49.22846802 -22.12781128 49.22846802 -20.91918945 49.27026367 C-16.38382887 49.32359387 -13.5947679 48.78611501 -10 46 C-8.05336368 43.4339794 -7.99229264 42.18883026 -8.125 38.9375 C-9.14180587 35.52393742 -9.91328708 34.67564416 -13 33 C-18.65761123 31.0835006 -25.1425374 31.94576424 -31 32 Z " fill="#101111" transform="translate(305,351)"/>
<path d="M0 0 C4.09065962 3.36790191 6.78993169 6.44590259 8.76953125 11.453125 C9.26453125 12.443125 9.26453125 12.443125 9.76953125 13.453125 C9.10953125 15.103125 8.44953125 16.753125 7.76953125 18.453125 C3.47953125 18.453125 -0.81046875 18.453125 -5.23046875 18.453125 C-5.81828125 16.7825 -5.81828125 16.7825 -6.41796875 15.078125 C-7.56538639 12.43639601 -7.9862952 11.60912477 -10.48046875 10.015625 C-15.08221852 9.074358 -18.73740342 8.88131275 -23.16796875 10.578125 C-25.51363244 12.34188314 -25.51363244 12.34188314 -25.85546875 15.453125 C-25.5122503 18.5094539 -25.5122503 18.5094539 -23.41796875 20.203125 C-19.51409088 21.7340575 -15.70110055 22.34427963 -11.55859375 22.92578125 C-10.7903125 23.09980469 -10.02203125 23.27382813 -9.23046875 23.453125 C-8.73546875 24.443125 -8.73546875 24.443125 -8.23046875 25.453125 C-7.54984375 25.55625 -6.86921875 25.659375 -6.16796875 25.765625 C-0.52299765 27.08678845 3.66499813 30.0370569 7.20703125 34.578125 C10.11437851 39.92764396 10.71007487 44.90661658 9.15625 50.765625 C6.82397248 56.84804038 3.42561785 60.29173819 -2.23046875 63.453125 C-5.41796875 64.765625 -5.41796875 64.765625 -9.23046875 65.453125 C-10.18953125 65.63230469 -11.14859375 65.81148438 -12.13671875 65.99609375 C-20.97760079 67.22750232 -26.92478459 65.55855925 -34.23046875 60.453125 C-40.1206433 55.53091619 -42.17185111 50.98107266 -43.23046875 43.453125 C-38.28046875 43.453125 -33.33046875 43.453125 -28.23046875 43.453125 C-27.24046875 45.433125 -26.25046875 47.413125 -25.23046875 49.453125 C-21.35090869 51.82396726 -17.69489487 51.76641806 -13.23046875 51.453125 C-9.90860704 50.54197964 -9.90860704 50.54197964 -7.23046875 49.453125 C-6.02388175 44.80195082 -6.02388175 44.80195082 -7.48046875 40.515625 C-9.3166471 39.19363593 -9.3166471 39.19363593 -12.23046875 39.453125 C-12.23046875 38.793125 -12.23046875 38.133125 -12.23046875 37.453125 C-12.90851563 37.35515625 -13.5865625 37.2571875 -14.28515625 37.15625 C-23.43308195 35.68650017 -32.11076968 33.91150824 -38.23046875 26.453125 C-41.22354819 21.96350584 -41.73678019 17.43142757 -40.83203125 12.109375 C-39.23854721 6.63528865 -36.78016713 1.99497881 -32.23046875 -1.546875 C-22.27536087 -6.45456854 -9.23018643 -6.40132018 0 0 Z " fill="#101111" transform="translate(301.23046875,268.546875)"/>
<path d="M0 0 C0.78688445 2.77723925 1.11949924 5.22610077 1.09765625 8.109375 C1.09443359 8.86347656 1.09121094 9.61757813 1.08789062 10.39453125 C1.07951172 11.17183594 1.07113281 11.94914062 1.0625 12.75 C1.05798828 13.54277344 1.05347656 14.33554687 1.04882812 15.15234375 C1.03708565 17.10159508 1.01915146 19.05080738 1 21 C2.01964844 20.3503125 3.03929687 19.700625 4.08984375 19.03125 C9.52261145 15.93696419 14.90797374 16.21595544 21 17 C25.00740747 18.48478613 27.89201619 21.31102833 30 25 C31.80980262 30.28971398 32.27324482 34.83268982 32.1953125 40.33984375 C32.1924826 41.10680069 32.18965271 41.87375763 32.18673706 42.66395569 C32.17563475 45.08863621 32.15054967 47.51293309 32.125 49.9375 C32.1149573 51.5917915 32.10583372 53.24608885 32.09765625 54.90039062 C32.07572817 58.93373923 32.04126843 62.9668048 32 67 C27.38 67 22.76 67 18 67 C17.94392578 63.87337891 17.94392578 63.87337891 17.88671875 60.68359375 C17.84038762 58.64467414 17.78919663 56.60592974 17.73754883 54.56713867 C17.70448006 53.1600222 17.67639296 51.75277884 17.65356445 50.34545898 C17.61968201 48.31179176 17.56735782 46.27926865 17.51171875 44.24609375 C17.48553467 43.02591553 17.45935059 41.8057373 17.43237305 40.54858398 C16.93461963 36.46340841 15.77668062 33.68780157 14 30 C8.40112419 29.44953636 8.40112419 29.44953636 3.5625 31.75 C0.72430585 35.83699958 0.83382033 39.8412808 0.68359375 44.734375 C0.64169922 46.02988281 0.59980469 47.32539063 0.55664062 48.66015625 C0.51683329 50.02343476 0.47712094 51.38671606 0.4375 52.75 C0.39427726 54.12891875 0.35066179 55.50782526 0.30664062 56.88671875 C0.20056101 60.25769306 0.09977635 63.62883323 0 67 C-4.62 67 -9.24 67 -14 67 C-14.94434246 44.5972912 -14.92861029 22.40246003 -14 0 C-9.0033408 -0.8097827 -4.99696347 -0.91780962 0 0 Z " fill="#101010" transform="translate(466,265)"/>
<path d="M0 0 C3.20296498 2.87268322 5.20641289 5.73571711 6 10 C6.08363974 12.83691625 6.11621679 15.64817989 6.09765625 18.484375 C6.0962413 19.29996887 6.09482635 20.11556274 6.09336853 20.95587158 C6.08778303 23.55395212 6.07523321 26.15194563 6.0625 28.75 C6.05748312 30.51432167 6.05292054 32.27864469 6.04882812 34.04296875 C6.03781835 38.36201256 6.02056369 42.68099154 6 47 C2.50235685 47.75659142 -0.25616532 48.0402166 -3.8125 47.5625 C-4.60269531 47.46066406 -5.39289063 47.35882813 -6.20703125 47.25390625 C-6.79871094 47.17011719 -7.39039063 47.08632813 -8 47 C-8.33 46.01 -8.66 45.02 -9 44 C-10.134375 44.66 -11.26875 45.32 -12.4375 46 C-17.75902964 48.62791587 -22.5282188 49.1490674 -28.20703125 47.26953125 C-32.54810228 45.29631714 -35.38276186 43.08289149 -38 39 C-39.43819559 34.68541323 -39.42844233 30.7994578 -38.375 26.375 C-35.8292334 21.97776678 -33.01519795 19.70270591 -28.2890625 18.0546875 C-21.91770791 16.36767073 -15.57169459 15.42163527 -9 15 C-9.33 13.02 -9.66 11.04 -10 9 C-13.96501494 7.95043722 -17.0368361 7.85508598 -21 9 C-21.25136719 9.66128906 -21.50273437 10.32257813 -21.76171875 11.00390625 C-22.17035156 11.66261719 -22.57898438 12.32132812 -23 13 C-26.0390625 13.609375 -26.0390625 13.609375 -29.625 13.75 C-31.40777344 13.83507812 -31.40777344 13.83507812 -33.2265625 13.921875 C-34.14179688 13.94765625 -35.05703125 13.9734375 -36 14 C-37.15603397 10.53189808 -36.65379241 9.09658683 -35.14453125 5.84375 C-32.51319827 1.60487912 -28.6982894 -1.13110775 -24.3125 -3.375 C-15.7045174 -4.99914766 -7.4770942 -4.98472947 0 0 Z M-16.5 25.9375 C-17.20253906 26.11990234 -17.90507812 26.30230469 -18.62890625 26.49023438 C-22.09827639 27.18678537 -22.09827639 27.18678537 -25 29 C-25.04080783 30.99958364 -25.04254356 33.00045254 -25 35 C-20.11592085 37.64123771 -20.11592085 37.64123771 -14.75 37.375 C-12.1396221 36.06981105 -10.79834178 35.23896113 -9 33 C-8.42676193 30.72838745 -8.42676193 30.72838745 -8.3125 28.3125 C-8.24675781 27.50425781 -8.18101562 26.69601562 -8.11328125 25.86328125 C-8.07589844 25.24839844 -8.03851563 24.63351562 -8 24 C-10.80146151 24 -13.78280062 25.21706824 -16.5 25.9375 Z " fill="#101110" transform="translate(354,365)"/>
<path d="M0 0 C5.34727396 2.98396984 8.56730285 6.20236725 11 11.90234375 C11.55995005 14.73926976 11.62761836 17.50425608 11.64453125 20.390625 C11.67289314 21.56723946 11.67289314 21.56723946 11.701828 22.7676239 C11.73810577 24.41204888 11.76535023 26.05669593 11.78393555 27.70141602 C11.8126212 30.22550855 11.86774954 32.74795894 11.92773438 35.27148438 C11.95985227 36.87366819 11.9905038 38.47588222 12.01953125 40.078125 C12.0340181 40.8332991 12.04850494 41.58847321 12.06343079 42.36653137 C12.11798941 47.66636492 12.11798941 47.66636492 11 49.90234375 C6.38 49.90234375 1.76 49.90234375 -3 49.90234375 C-3.33 49.24234375 -3.66 48.58234375 -4 47.90234375 C-4.99 48.56234375 -5.98 49.22234375 -7 49.90234375 C-7.99 49.90234375 -8.98 49.90234375 -10 49.90234375 C-10.33 50.56234375 -10.66 51.22234375 -11 51.90234375 C-18.15636943 52.35913329 -24.27422792 51.10615947 -29.9375 46.52734375 C-33.2547559 42.3053817 -34.21853039 39.65885311 -33.6875 34.33984375 C-33.4895071 32.85618267 -33.2610267 31.37622178 -33 29.90234375 C-32.90589844 29.20496094 -32.81179688 28.50757813 -32.71484375 27.7890625 C-31.41051445 24.34648843 -28.34846129 23.50139851 -25.17578125 22 C-20.27194224 20.30506917 -15.35716312 19.83469558 -10.22265625 19.359375 C-6.85640193 19.11888178 -6.85640193 19.11888178 -4 16.90234375 C-4.495 14.42734375 -4.495 14.42734375 -5 11.90234375 C-8.37681891 11.61724647 -11.63544363 11.43427944 -15 11.90234375 C-15.495 12.72734375 -15.99 13.55234375 -16.5 14.40234375 C-16.995 15.22734375 -17.49 16.05234375 -18 16.90234375 C-23.06059674 17.80885064 -27.52489381 17.48772993 -32 14.90234375 C-30.04219189 7.80528935 -27.27489561 4.68414264 -21 0.90234375 C-20.39285156 0.52851563 -19.78570312 0.1546875 -19.16015625 -0.23046875 C-13.30724009 -2.58010236 -5.83515759 -2.13499907 0 0 Z M-9.8125 28.71484375 C-10.87082031 28.86566406 -11.92914063 29.01648438 -13.01953125 29.171875 C-16.09914687 29.92664318 -17.73118833 30.71456107 -20 32.90234375 C-20.49315303 35.72036105 -20.38323858 37.20772382 -19 39.71484375 C-15.78055194 41.62639103 -12.58078133 41.50263068 -9 40.90234375 C-5.91182268 39.64847369 -5.91182268 39.64847369 -4 36.90234375 C-3.30804567 33.90215371 -3.07223982 30.9758199 -3 27.90234375 C-5.27828994 27.90234375 -7.56696042 28.38086386 -9.8125 28.71484375 Z " fill="#111211" transform="translate(384,282.09765625)"/>
<path d="M0 0 C5.76913084 4.28706102 9.01704447 10.6915428 10.265625 17.68359375 C10.30716193 19.25601579 10.31903882 20.82943866 10.3046875 22.40234375 C10.29622803 23.60793945 10.29622803 23.60793945 10.28759766 24.83789062 C10.28034668 25.44697266 10.2730957 26.05605469 10.265625 26.68359375 C5.90568433 26.70832075 1.54578086 26.72646656 -2.81420898 26.73852539 C-4.29728913 26.74355278 -5.78036433 26.7503756 -7.26342773 26.7590332 C-9.39568301 26.77116857 -11.52787273 26.776838 -13.66015625 26.78125 C-14.94317627 26.78648682 -16.22619629 26.79172363 -17.5480957 26.79711914 C-20.734375 26.68359375 -20.734375 26.68359375 -23.734375 25.68359375 C-23.734375 26.34359375 -23.734375 27.00359375 -23.734375 27.68359375 C-23.074375 28.01359375 -22.414375 28.34359375 -21.734375 28.68359375 C-21.610625 29.46734375 -21.486875 30.25109375 -21.359375 31.05859375 C-20.93564254 33.73095527 -20.93564254 33.73095527 -19.171875 35.49609375 C-15.71043676 37.18243545 -12.46043867 37.52423007 -8.734375 36.68359375 C-7.6515625 35.47703125 -7.6515625 35.47703125 -6.546875 34.24609375 C-2.03935081 30.13923838 3.37000759 30.77854513 9.265625 30.68359375 C10.390625 35.43359375 10.390625 35.43359375 9.265625 37.68359375 C8.605625 37.68359375 7.945625 37.68359375 7.265625 37.68359375 C7.03875 38.26109375 6.811875 38.83859375 6.578125 39.43359375 C3.83834135 44.13036572 -0.4976923 46.43321546 -5.5 48.14453125 C-12.67710565 49.87607073 -20.18373335 49.12298445 -26.734375 45.68359375 C-31.71225375 41.94293535 -34.9299048 37.70150941 -36.734375 31.68359375 C-37.13019627 28.87673724 -37.165403 26.13959929 -37.109375 23.30859375 C-37.09777344 22.56053467 -37.08617187 21.81247559 -37.07421875 21.04174805 C-36.88512863 14.64952868 -36.68108318 8.7386866 -32.03515625 3.921875 C-22.38540508 -3.90788381 -11.14794547 -6.1874603 0 0 Z M-21.734375 11.68359375 C-22.064375 13.33359375 -22.394375 14.98359375 -22.734375 16.68359375 C-16.464375 16.68359375 -10.194375 16.68359375 -3.734375 16.68359375 C-5.89176341 10.1179441 -5.89176341 10.1179441 -8.546875 8.24609375 C-14.2597751 6.7770623 -17.60591979 7.31922681 -21.734375 11.68359375 Z " fill="#101110" transform="translate(451.734375,364.31640625)"/>
<path d="M0 0 C0.43699219 0.51691406 0.87398438 1.03382813 1.32421875 1.56640625 C2.14921875 2.16453125 2.97421875 2.76265625 3.82421875 3.37890625 C6.68613376 5.88308188 7.9066565 8.0598049 9.32421875 11.56640625 C9.32421875 12.55640625 9.32421875 13.54640625 9.32421875 14.56640625 C7.24203513 14.67472794 5.15822746 14.75214166 3.07421875 14.81640625 C1.33398438 14.88601563 1.33398438 14.88601563 -0.44140625 14.95703125 C-4.3453335 14.48554245 -5.06719622 13.34889695 -7.67578125 10.56640625 C-10.03102786 10.08718266 -10.03102786 10.08718266 -12.42578125 10.31640625 C-13.225 10.3525 -14.02421875 10.38859375 -14.84765625 10.42578125 C-15.75257813 10.49539063 -15.75257813 10.49539063 -16.67578125 10.56640625 C-17.33578125 12.54640625 -17.99578125 14.52640625 -18.67578125 16.56640625 C-17.35578125 16.23640625 -16.03578125 15.90640625 -14.67578125 15.56640625 C-14.67578125 16.55640625 -14.67578125 17.54640625 -14.67578125 18.56640625 C-9.72578125 18.89640625 -4.77578125 19.22640625 0.32421875 19.56640625 C0.32421875 20.22640625 0.32421875 20.88640625 0.32421875 21.56640625 C1.68546875 21.59734375 1.68546875 21.59734375 3.07421875 21.62890625 C6.32421875 22.56640625 6.32421875 22.56640625 8.69921875 25.62890625 C11.11509724 30.53112636 10.98961575 34.96530888 9.63671875 40.25390625 C6.55560228 45.68254004 2.78971953 48.34990602 -3.08203125 50.0625 C-11.18241043 51.63621824 -18.22647061 51.02501476 -25.67578125 47.56640625 C-26.41828125 47.31890625 -27.16078125 47.07140625 -27.92578125 46.81640625 C-30.78786304 44.77206212 -32.44538541 41.83219094 -33.67578125 38.56640625 C-33.67578125 36.91640625 -33.67578125 35.26640625 -33.67578125 33.56640625 C-29.38578125 33.56640625 -25.09578125 33.56640625 -20.67578125 33.56640625 C-20.01578125 34.88640625 -19.35578125 36.20640625 -18.67578125 37.56640625 C-13.55360909 39.3591665 -10.02821106 39.9045137 -4.67578125 38.56640625 C-4.67578125 36.91640625 -4.67578125 35.26640625 -4.67578125 33.56640625 C-8.43051153 32.24717669 -12.20574774 31.14497908 -16.05078125 30.12890625 C-20.72709531 28.87506554 -25.17642599 27.34916966 -29.67578125 25.56640625 C-29.67578125 24.90640625 -29.67578125 24.24640625 -29.67578125 23.56640625 C-30.33578125 23.23640625 -30.99578125 22.90640625 -31.67578125 22.56640625 C-33.50915071 17.06629786 -33.52753239 11.61835218 -31.30078125 6.25390625 C-24.69317669 -0.51102223 -8.43757405 -7.21815775 0 0 Z " fill="#101111" transform="translate(399.67578125,362.43359375)"/>
<path d="M0 0 C2.7827446 2.22756649 4.6178719 4.25593079 6.5859375 7.26953125 C6.7109375 9.9609375 6.7109375 9.9609375 6.5859375 12.26953125 C4.65194942 12.54538691 2.71339841 12.7894054 0.7734375 13.01953125 C-0.30550781 13.15875 -1.38445312 13.29796875 -2.49609375 13.44140625 C-3.94048828 13.35632813 -3.94048828 13.35632813 -5.4140625 13.26953125 C-7.0546875 11.33984375 -7.0546875 11.33984375 -8.4140625 9.26953125 C-11.97756809 7.99632802 -15.38300437 7.88288445 -18.9140625 9.20703125 C-19.4090625 9.55765625 -19.9040625 9.90828125 -20.4140625 10.26953125 C-20.4140625 11.58953125 -20.4140625 12.90953125 -20.4140625 14.26953125 C-18.4959375 14.70265625 -18.4959375 14.70265625 -16.5390625 15.14453125 C-15.71921875 15.33144531 -14.899375 15.51835937 -14.0546875 15.7109375 C-12.32415577 16.07701152 -10.58361069 16.39913206 -8.8359375 16.671875 C-3.03833643 17.60553775 1.43638534 18.94803632 5.5859375 23.26953125 C8.24148548 27.4540311 8.86787534 30.19584057 7.8984375 34.95703125 C5.96436274 42.364406 5.96436274 42.364406 2.37890625 44.71875 C1.51910156 45.12738281 0.65929687 45.53601563 -0.2265625 45.95703125 C-1.07863281 46.37339844 -1.93070312 46.78976562 -2.80859375 47.21875 C-10.27205648 50.22875221 -17.75353343 50.06356446 -25.23046875 47.31640625 C-28.85356087 45.57939608 -31.83512741 43.35960663 -34.4140625 40.26953125 C-35.2265625 37.45703125 -35.2265625 37.45703125 -35.4140625 35.26953125 C-36.0740625 34.93953125 -36.7340625 34.60953125 -37.4140625 34.26953125 C-37.0840625 33.60953125 -36.7540625 32.94953125 -36.4140625 32.26953125 C-31.11693323 31.19214902 -27.43363733 30.87925752 -22.4140625 33.26953125 C-21.7540625 34.25953125 -21.0940625 35.24953125 -20.4140625 36.26953125 C-15.77008239 37.81752462 -11.08888542 37.76547458 -6.4140625 36.26953125 C-6.9090625 33.79453125 -6.9090625 33.79453125 -7.4140625 31.26953125 C-8.32901489 31.02831543 -8.32901489 31.02831543 -9.26245117 30.78222656 C-12.04572673 30.04072493 -14.82350593 29.280342 -17.6015625 28.51953125 C-19.04112305 28.14054687 -19.04112305 28.14054687 -20.50976562 27.75390625 C-26.49304175 26.09763604 -31.32372529 24.59506772 -34.7890625 19.08203125 C-35.90634073 14.05427921 -35.02808457 9.11159746 -33.4140625 4.26953125 C-24.79263125 -3.84475699 -10.46686135 -6.46751476 0 0 Z " fill="#101111" transform="translate(437.4140625,284.73046875)"/>
<path d="M0 0 C4.29 0 8.58 0 13 0 C15.49388574 4.98777148 14.88836125 6.66983248 14 12 C17.3 12.33 20.6 12.66 24 13 C24.495 18.445 24.495 18.445 25 24 C21.37 23.67 17.74 23.34 14 23 C14.33 31.58 14.66 40.16 15 49 C18.3 49.66 21.6 50.32 25 51 C25 54.96 25 58.92 25 63 C11.55516055 64.88555675 11.55516055 64.88555675 5.5859375 61.24609375 C2.22134091 58.60248214 0.3440997 56.03229911 -1 52 C-1.01601081 49.78745013 -0.96579756 47.57418224 -0.87890625 45.36328125 C-0.83056641 44.06455078 -0.78222656 42.76582031 -0.73242188 41.42773438 C-0.67590048 40.05598467 -0.61925831 38.68423993 -0.5625 37.3125 C-0.50925949 35.92905584 -0.45651922 34.54559234 -0.40429688 33.16210938 C-0.27445883 29.77451675 -0.13948625 26.38720686 0 23 C-2.31 23 -4.62 23 -7 23 C-7.33 19.7 -7.66 16.4 -8 13 C-6 12 -6 12 0 13 C0 8.71 0 4.42 0 0 Z " fill="#111111" transform="translate(321,270)"/>
<path d="M0 0 C15.98537418 -0.0700405 31.97069868 -0.12296376 47.95618916 -0.15543652 C55.37831561 -0.17091406 62.8003468 -0.19202041 70.22241211 -0.22631836 C76.69050238 -0.2561937 83.15852368 -0.27556855 89.62668103 -0.28226548 C93.05244464 -0.28618095 96.47801088 -0.29540093 99.90371132 -0.31719017 C103.72531495 -0.34130103 107.54672442 -0.34197119 111.3684082 -0.34057617 C112.50776321 -0.351362 113.64711823 -0.36214783 114.82099915 -0.3732605 C116.37959656 -0.36707451 116.37959656 -0.36707451 117.96968079 -0.36076355 C118.8739597 -0.36352893 119.77823862 -0.36629431 120.70991993 -0.36914349 C123.47632083 0.07677929 124.36469888 0.754488 126 3 C126.36076355 5.90434265 126.36076355 5.90434265 126.34057617 9.4909668 C126.34123329 10.47185776 126.34123329 10.47185776 126.34190369 11.4725647 C126.33981539 13.63175423 126.31648388 15.79016505 126.29296875 17.94921875 C126.28737291 19.44708329 126.28310275 20.94495332 126.28010559 22.44282532 C126.2686558 26.38358746 126.23918778 30.32401745 126.20599365 34.26464844 C126.17529548 38.28641262 126.16160082 42.30823053 126.14648438 46.33007812 C126.11431793 54.22020444 126.06312028 62.11006089 126 70 C123.04181155 70.33466374 120.08346412 70.66779007 117.125 71 C116.28324219 71.09539062 115.44148438 71.19078125 114.57421875 71.2890625 C113.76855469 71.37929687 112.96289062 71.46953125 112.1328125 71.5625 C111.01737061 71.68818359 111.01737061 71.68818359 109.87939453 71.81640625 C108 72 108 72 106 72 C105.67 72.66 105.34 73.32 105 74 C104.67 72.68 104.34 71.36 104 70 C110.47569614 68.38107596 117.3250052 69 124 69 C123.67 47.22 123.34 25.44 123 3 C120.5418949 1.77094745 118.91550853 1.86170658 116.16586304 1.84178162 C115.14500107 1.8319928 114.1241391 1.82220398 113.07234192 1.81211853 C111.94809311 1.80636307 110.8238443 1.8006076 109.66552734 1.79467773 C108.48505325 1.78477814 107.30457916 1.77487854 106.08833313 1.76467896 C102.84683218 1.73845843 99.60533657 1.71660989 96.36379194 1.69667697 C92.97782185 1.67483152 89.59189686 1.6474358 86.20596313 1.62062073 C79.79222272 1.57067431 73.3784573 1.52574273 66.96466792 1.48259836 C59.66364246 1.43324262 52.36266226 1.37831834 45.06168056 1.32291877 C30.04116253 1.20906882 15.0206019 1.10223636 0 1 C0 0.67 0 0.34 0 0 Z " fill="#1E7BD9" transform="translate(110,166)"/>
<path d="M0 0 C4.29 0.33 8.58 0.66 13 1 C13 28.72 13 56.44 13 85 C12.67 85 12.34 85 12 85 C12 57.94 12 30.88 12 3 C7.05 3 2.1 3 -3 3 C-2.01 2.01 -1.02 1.02 0 0 Z " fill="#07090A" transform="translate(223,245)"/>
<path d="M0 0 C0.66 0 1.32 0 2 0 C2.16744386 5.09014139 2.32802081 10.18043494 2.48217773 15.27099609 C2.5356173 17.00347759 2.59094818 18.7359018 2.64819336 20.46826172 C2.73004993 22.95527798 2.80514988 25.4424195 2.87890625 27.9296875 C2.90594131 28.70682098 2.93297638 29.48395447 2.96083069 30.28463745 C3.11387171 35.77225659 3.11387171 35.77225659 2 38 C-2.62 38 -7.24 38 -12 38 C-12 37.01 -12 36.02 -12 35 C-12.66 34.67 -13.32 34.34 -14 34 C-12.68 33.34 -11.36 32.68 -10 32 C-10 33.65 -10 35.3 -10 37 C-6.7 37 -3.4 37 0 37 C0 24.79 0 12.58 0 0 Z " fill="#0A0A0A" transform="translate(393,294)"/>
<path d="M0 0 C0 0.99 0 1.98 0 3 C-2.01171875 4.68359375 -2.01171875 4.68359375 -4.6875 6.4375 C-5.60273438 7.05238281 -6.51796875 7.66726563 -7.4609375 8.30078125 C-8.29882812 8.86152344 -9.13671875 9.42226563 -10 10 C-14.50126476 13.40095559 -18.46934952 17.0866869 -22 21.5 C-24 24 -24 24 -26.5625 26.5 C-29.39963676 29.40988385 -31.19549064 32.39098128 -33 36 C-33.66 36 -34.32 36 -35 36 C-35.99 38.475 -35.99 38.475 -37 41 C-37.66 40.67 -38.32 40.34 -39 40 C-34.38721854 32.19831817 -29.27211252 25.53043675 -23 19 C-22.22785156 18.1646875 -21.45570313 17.329375 -20.66015625 16.46875 C-14.40435386 9.89863663 -7.5681879 4.91101848 0 0 Z " fill="#2077CF" transform="translate(174,251)"/>
<path d="M0 0 C0.99 0.495 0.99 0.495 2 1 C2 5.95 2 10.9 2 16 C3.98 15.7525 3.98 15.7525 6 15.5 C9.13946592 15.13908502 12.15490871 14.97330251 15.3125 15.0625 C18.67786331 15.00545994 20.25820994 14.82786004 23 13 C19.27727697 17.73733292 19.27727697 17.73733292 15.99365234 18.41259766 C13.70744144 18.49122262 11.47155295 18.43694547 9.1875 18.3125 C8.39923828 18.28994141 7.61097656 18.26738281 6.79882812 18.24414062 C4.86506071 18.18554161 2.93227833 18.09586827 1 18 C-0.59412284 14.81175432 -0.10174735 11.37103338 -0.0625 7.875 C-0.05798828 7.12089844 -0.05347656 6.36679687 -0.04882812 5.58984375 C-0.03703499 3.72652873 -0.01909942 1.86325445 0 0 Z " fill="#090909" transform="translate(272,356)"/>
<path d="M0 0 C1.0625 1.8125 1.0625 1.8125 2 4 C1.67 4.99 1.34 5.98 1 7 C0.34 7 -0.32 7 -1 7 C-1.33 7.99 -1.66 8.98 -2 10 C-2.66 9.67 -3.32 9.34 -4 9 C-3.01 7.02 -2.02 5.04 -1 3 C-7.74320491 3.06914079 -7.74320491 3.06914079 -13.5 6.0625 C-13.995 6.701875 -14.49 7.34125 -15 8 C-15.66 8 -16.32 8 -17 8 C-17 6 -17 6 -15.25 3.4375 C-11.24479472 -0.53267433 -5.30034667 0.09298854 0 0 Z " fill="#080808" transform="translate(460,395)"/>
<path d="M0 0 C4.29 0 8.58 0 13 0 C13.66 1.32 14.32 2.64 15 4 C15.66 4.33 16.32 4.66 17 5 C17 5.66 17 6.32 17 7 C15.0625 6.1875 15.0625 6.1875 13 5 C12.67 4.01 12.34 3.02 12 2 C8.7 2 5.4 2 2 2 C2.99 4.64 3.98 7.28 5 10 C2 9 2 9 0.8125 7.25 C0 5 0 5 0 0 Z " fill="#090909" transform="translate(366,396)"/>
<path d="M0 0 C4.29 0 8.58 0 13 0 C15.14014979 4.28029958 15.15816979 4.88772754 14.125 9.25 C13.92132813 10.14203125 13.71765625 11.0340625 13.5078125 11.953125 C13.25644531 12.96632813 13.25644531 12.96632813 13 14 C12.67 14 12.34 14 12 14 C12 10.04 12 6.08 12 2 C8.04 2 4.08 2 0 2 C0 1.34 0 0.68 0 0 Z " fill="#070808" transform="translate(321,270)"/>
<path d="M0 0 C3.1744176 1.09462676 3.98914157 1.98177335 5.75 4.9375 C7 8 7 8 7 11 C2.71 11 -1.58 11 -6 11 C-6 10.34 -6 9.68 -6 9 C-2.7 8.67 0.6 8.34 4 8 C2.5 4 2.5 4 0 3 C0 2.01 0 1.02 0 0 Z " fill="#0A0A0A" transform="translate(402,366)"/>
<path d="M0 0 C4.88920356 3.09932172 7.45491967 5.50928316 8.96484375 11.34765625 C8.77734375 15.22265625 8.77734375 15.22265625 7.96484375 18.34765625 C7.30484375 18.67765625 6.64484375 19.00765625 5.96484375 19.34765625 C6.00609375 18.13078125 6.04734375 16.91390625 6.08984375 15.66015625 C6.0772949 12.10883304 5.76140249 9.49163404 3.96484375 6.34765625 C1.02496731 3.5127754 -2.1586251 2.492995 -6.03515625 1.34765625 C-2.62546922 -0.84156115 -2.62546922 -0.84156115 0 0 Z " fill="#090909" transform="translate(437.03515625,303.65234375)"/>
<path d="M0 0 C2.875 1.625 2.875 1.625 5 4 C5.625 7.0625 5.625 7.0625 5 10 C2.75 11.9375 2.75 11.9375 0 13 C-2.3125 12.6875 -2.3125 12.6875 -4 12 C-1.69 11.34 0.62 10.68 3 10 C2.67 8.02 2.34 6.04 2 4 C-1.65456815 3.24758891 -5.31733897 2.59950296 -9 2 C-5.48746854 -0.34168764 -4.13530644 -0.49623677 0 0 Z " fill="#090909" transform="translate(342,370)"/>
<path d="M0 0 C3.8496075 0.21997757 4.99046001 0.99067201 7.8125 3.75 C10 7 10 7 10 12 C4.06 12.495 4.06 12.495 -2 13 C-2.33 11.68 -2.66 10.36 -3 9 C-2.67 9.66 -2.34 10.32 -2 11 C1.3 11 4.6 11 8 11 C5.9785845 6.42521756 3.68006822 3.38168431 0 0 Z " fill="#0A0A0A" transform="translate(434,285)"/>
<path d="M0 0 C1.125 3.75 1.125 3.75 0 6 C-0.66 6 -1.32 6 -2 6 C-2 6.66 -2 7.32 -2 8 C-5.83269257 9.80362003 -8.76849335 10.44078194 -13 10 C-15.875 8.625 -15.875 8.625 -18 7 C-18 6.34 -18 5.68 -18 5 C-17.2575 5.495 -17.2575 5.495 -16.5 6 C-12.96843112 7.41262755 -9.75703161 7.50248365 -6 7 C-2.73064421 5.27928642 -1.39957689 3.38231081 0 0 Z " fill="#080908" transform="translate(381,315)"/>
<path d="M0 0 C0.33 0.66 0.66 1.32 1 2 C0.34 3.65 -0.32 5.3 -1 7 C-5.29 7 -9.58 7 -14 7 C-14 5.35 -14 3.7 -14 2 C-13.67 2.66 -13.34 3.32 -13 4 C-9.37 4 -5.74 4 -2 4 C-2 3.01 -2 2.02 -2 1 C-1.34 0.67 -0.68 0.34 0 0 Z " fill="#090909" transform="translate(310,280)"/>
<path d="M0 0 C-0.8353125 0.37125 -0.8353125 0.37125 -1.6875 0.75 C-6.95498028 3.46462235 -6.95498028 3.46462235 -9.76171875 8.484375 C-10.25980705 10.98541412 -10.67661443 13.47083524 -11 16 C-11.66 16 -12.32 16 -13 16 C-12.85769192 14.58297487 -12.71099254 13.1663904 -12.5625 11.75 C-12.48128906 10.96109375 -12.40007812 10.1721875 -12.31640625 9.359375 C-11.51928783 3.41543027 -11.51928783 3.41543027 -8.8125 1.25 C-5.64389285 -0.15826984 -3.42985545 -0.23929224 0 0 Z " fill="#090909" transform="translate(363,305)"/>
<path d="M0 0 C0.75410156 0.00322266 1.50820312 0.00644531 2.28515625 0.00976562 C3.06246094 0.01814453 3.83976563 0.02652344 4.640625 0.03515625 C5.43339844 0.03966797 6.22617188 0.04417969 7.04296875 0.04882812 C8.99222008 0.0605706 10.94143238 0.07850479 12.890625 0.09765625 C12.890625 0.42765625 12.890625 0.75765625 12.890625 1.09765625 C10.09912051 1.43239769 7.30743856 1.76551123 4.515625 2.09765625 C3.32453125 2.24074219 3.32453125 2.24074219 2.109375 2.38671875 C-3.8828125 3.09765625 -3.8828125 3.09765625 -6.109375 3.09765625 C-6.439375 3.75765625 -6.769375 4.41765625 -7.109375 5.09765625 C-7.439375 3.77765625 -7.769375 2.45765625 -8.109375 1.09765625 C-5.33213575 0.3107718 -2.88327423 -0.02184299 0 0 Z " fill="#2078CF" transform="translate(222.109375,234.90234375)"/>
<path d="M0 0 C5.28 0 10.56 0 16 0 C15.67 0.66 15.34 1.32 15 2 C12.05859375 2.4140625 12.05859375 2.4140625 8.4375 2.625 C7.23996094 2.69976562 6.04242188 2.77453125 4.80859375 2.8515625 C3.88175781 2.90054687 2.95492188 2.94953125 2 3 C1.34 2.01 0.68 1.02 0 0 Z " fill="#090A09" transform="translate(277,332)"/>
<path d="M0 0 C2 3 2 3 3.3125 5.875 C5.12595427 9.23324865 7.20328266 11.43004353 10 14 C6.52660947 13.43491477 5.04993024 12.37356664 2.8125 9.6875 C2.30332031 9.09324219 1.79414063 8.49898438 1.26953125 7.88671875 C-0.08277578 5.87698245 -0.66949261 4.39247889 -1 2 C-0.67 1.34 -0.34 0.68 0 0 Z " fill="#0B0B0B" transform="translate(260,315)"/>
<path d="M0 0 C0 0.33 0 0.66 0 1 C-3.96 1 -7.92 1 -12 1 C-12.33 0.34 -12.66 -0.32 -13 -1 C-8.05632546 -2.20577428 -4.79137588 -1.6290678 0 0 Z " fill="#070707" transform="translate(394,362)"/>
<path d="M0 0 C0 0.66 0 1.32 0 2 C-5.94 2.495 -5.94 2.495 -12 3 C-11.67 2.01 -11.34 1.02 -11 0 C-3.57142857 -1.28571429 -3.57142857 -1.28571429 0 0 Z " fill="#0A0B0B" transform="translate(412,317)"/>
<path d="M0 0 C4.62 0 9.24 0 14 0 C14.33 0.99 14.66 1.98 15 3 C9.72 3 4.44 3 -1 3 C-0.67 2.01 -0.34 1.02 0 0 Z " fill="#060706" transform="translate(367,281)"/>
<path d="M0 0 C0.99 0.33 1.98 0.66 3 1 C1.9275 1.721875 0.855 2.44375 -0.25 3.1875 C-3.41994768 5.43796996 -5.7261994 7.81667916 -8 11 C-8.23828125 8.7109375 -8.23828125 8.7109375 -8 6 C-6.35546875 4.1640625 -6.35546875 4.1640625 -4.1875 2.625 C-3.47980469 2.10164063 -2.77210938 1.57828125 -2.04296875 1.0390625 C-1.36878906 0.69617188 -0.69460938 0.35328125 0 0 Z " fill="#080808" transform="translate(426,364)"/>
<path d="M0 0 C-1.65 0.33 -3.3 0.66 -5 1 C-5 1.66 -5 2.32 -5 3 C-6.28965176 4.37562854 -7.62689293 5.70766393 -9 7 C-9.66 7.66 -10.32 8.32 -11 9 C-11.3125 6.75 -11.3125 6.75 -11 4 C-7.23539186 0.43352913 -5.04069577 -1.51220873 0 0 Z " fill="#090909" transform="translate(415,285)"/>
<path d="M0 0 C4.95 0 9.9 0 15 0 C15 0.33 15 0.66 15 1 C14.10796875 1.12117188 13.2159375 1.24234375 12.296875 1.3671875 C11.12640625 1.53476562 9.9559375 1.70234375 8.75 1.875 C7.58984375 2.03742188 6.4296875 2.19984375 5.234375 2.3671875 C2.41806687 2.91820431 0.44782443 3.55796482 -2 5 C-1.34 3.35 -0.68 1.7 0 0 Z " fill="#070707" transform="translate(276,276)"/>
<path d="M0 0 C1.60332791 -0.08121924 3.20784026 -0.13929134 4.8125 -0.1875 C6.15248047 -0.23970703 6.15248047 -0.23970703 7.51953125 -0.29296875 C10 0 10 0 13 3 C9.37 3 5.74 3 2 3 C2 2.34 2 1.68 2 1 C1.34 0.67 0.68 0.34 0 0 Z " fill="#080808" transform="translate(417,301)"/>
<path d="M0 0 C0.66 0 1.32 0 2 0 C1.67 0.99 1.34 1.98 1 3 C-2.75907641 4.62323754 -5.92086213 5.23994929 -10 5 C-10 4.34 -10 3.68 -10 3 C-9.04287109 2.80083984 -9.04287109 2.80083984 -8.06640625 2.59765625 C-7.24011719 2.42105469 -6.41382813 2.24445313 -5.5625 2.0625 C-4.73878906 1.88847656 -3.91507812 1.71445312 -3.06640625 1.53515625 C-1.02338796 1.19247006 -1.02338796 1.19247006 0 0 Z " fill="#090909" transform="translate(380,299)"/>
<path d="M0 0 C3.33333333 3.33333333 6.66666667 6.66666667 10 10 C5.73794894 9.52643877 3.71306207 7.15301808 1 4 C0.1875 1.6875 0.1875 1.6875 0 0 Z " fill="#090B0D" transform="translate(261,214)"/>
<path d="M0 0 C0.33 0 0.66 0 1 0 C1.44041451 5.28497409 1.44041451 5.28497409 1 8 C-1.5 10.5 -1.5 10.5 -4 12 C-3.71125 11.319375 -3.4225 10.63875 -3.125 9.9375 C-1.87402645 6.67106907 -0.92552045 3.37153877 0 0 Z " fill="#070706" transform="translate(297,388)"/>
<path d="M0 0 C-7 4.66666667 -7 4.66666667 -11 6 C-10 3 -10 3 -7.75 1.3125 C-4.8635748 -0.06511203 -3.14826764 -0.26985151 0 0 Z " fill="#070707" transform="translate(381,363)"/>
<path d="M0 0 C0.66 0 1.32 0 2 0 C1.34 3.96 0.68 7.92 0 12 C-0.33 12 -0.66 12 -1 12 C-2.11658501 7.31034294 -1.80619523 4.46236469 0 0 Z " fill="#070809" transform="translate(135,318)"/>
<path d="M0 0 C0.66 0.33 1.32 0.66 2 1 C-0.31 3.64 -2.62 6.28 -5 9 C-5.33 8.01 -5.66 7.02 -6 6 C-2.83636364 1.41818182 -2.83636364 1.41818182 0 0 Z " fill="#080A0D" transform="translate(266,173)"/>
<path d="M0 0 C1 4 1 4 1 4 Z " fill="#0D0E0D" transform="translate(450,327)"/>
<path d="" fill="#181918" transform="translate(0,0)"/>
<path d="M0 0 C2 1 2 1 2 1 Z " fill="#171817" transform="translate(431,415)"/>
<path d="" fill="#080908" transform="translate(0,0)"/>
<path d="M0 0 C2 1 2 1 2 1 Z " fill="#0F0F0F" transform="translate(333,400)"/>
<path d="" fill="#0C0C0C" transform="translate(0,0)"/>
<path d="" fill="#111212" transform="translate(0,0)"/>
<path d="" fill="#111111" transform="translate(0,0)"/>
<path d="" fill="#171817" transform="translate(0,0)"/>
<path d="" fill="#171818" transform="translate(0,0)"/>
<path d="M0 0 C2 1 2 1 2 1 Z " fill="#171817" transform="translate(482,333)"/>
<path d="" fill="#181818" transform="translate(0,0)"/>
<path d="M0 0 C2 1 2 1 2 1 Z " fill="#162839" transform="translate(129,324)"/>
<path d="" fill="#0C0C0C" transform="translate(0,0)"/>
<path d="" fill="#0A0A0A" transform="translate(0,0)"/>
<path d="M0 0 C2 1 2 1 2 1 Z " fill="#171818" transform="translate(348,280)"/>
<path d="" fill="#161716" transform="translate(0,0)"/>
<path d="M0 0 C2 1 2 1 2 1 Z " fill="#060706" transform="translate(450,264)"/>
<path d="M0 0 C2 1 2 1 2 1 Z " fill="#173555" transform="translate(254,186)"/>
<path d="" fill="#121312" transform="translate(0,0)"/>
<path d="" fill="#0B0B0B" transform="translate(0,0)"/>
<path d="" fill="#161716" transform="translate(0,0)"/>
<path d="" fill="#171817" transform="translate(0,0)"/>
<path d="" fill="#161616" transform="translate(0,0)"/>
<path d="" fill="#1C1D1D" transform="translate(0,0)"/>
<path d="" fill="#161716" transform="translate(0,0)"/>
<path d="" fill="#161716" transform="translate(0,0)"/>
<path d="" fill="#181918" transform="translate(0,0)"/>
<path d="" fill="#080908" transform="translate(0,0)"/>
<path d="" fill="#161616" transform="translate(0,0)"/>
<path d="" fill="#171817" transform="translate(0,0)"/>
<path d="" fill="#171817" transform="translate(0,0)"/>
<path d="" fill="#191A19" transform="translate(0,0)"/>
<path d="" fill="#202120" transform="translate(0,0)"/>
<path d="" fill="#232423" transform="translate(0,0)"/>
<path d="" fill="#121313" transform="translate(0,0)"/>
<path d="" fill="#090909" transform="translate(0,0)"/>
<path d="" fill="#0D0D0D" transform="translate(0,0)"/>
<path d="" fill="#060606" transform="translate(0,0)"/>
<path d="" fill="#161717" transform="translate(0,0)"/>
<path d="" fill="#0D0D0C" transform="translate(0,0)"/>
<path d="" fill="#0D0E0E" transform="translate(0,0)"/>
<path d="" fill="#0F0F0F" transform="translate(0,0)"/>
<path d="" fill="#0E0E0E" transform="translate(0,0)"/>
<path d="" fill="#0D0D0D" transform="translate(0,0)"/>
<path d="" fill="#0D0F0E" transform="translate(0,0)"/>
<path d="" fill="#0D0E0D" transform="translate(0,0)"/>
<path d="" fill="#0E0F0E" transform="translate(0,0)"/>
<path d="" fill="#1D1D1D" transform="translate(0,0)"/>
<path d="" fill="#171817" transform="translate(0,0)"/>
<path d="" fill="#1C1D1C" transform="translate(0,0)"/>
<path d="" fill="#181918" transform="translate(0,0)"/>
<path d="" fill="#0F1010" transform="translate(0,0)"/>
<path d="" fill="#121313" transform="translate(0,0)"/>
<path d="" fill="#181919" transform="translate(0,0)"/>
<path d="" fill="#171817" transform="translate(0,0)"/>
<path d="" fill="#050606" transform="translate(0,0)"/>
<path d="" fill="#1E1F1E" transform="translate(0,0)"/>
<path d="" fill="#0D0D0E" transform="translate(0,0)"/>
<path d="" fill="#191A19" transform="translate(0,0)"/>
<path d="" fill="#121312" transform="translate(0,0)"/>
<path d="" fill="#161616" transform="translate(0,0)"/>
<path d="" fill="#0E0E0E" transform="translate(0,0)"/>
<path d="" fill="#0E0F0E" transform="translate(0,0)"/>
<path d="" fill="#080908" transform="translate(0,0)"/>
<path d="" fill="#171818" transform="translate(0,0)"/>
<path d="" fill="#181919" transform="translate(0,0)"/>
<path d="" fill="#0D0D0C" transform="translate(0,0)"/>
<path d="" fill="#111312" transform="translate(0,0)"/>
<path d="" fill="#0C0D0D" transform="translate(0,0)"/>
<path d="" fill="#161716" transform="translate(0,0)"/>
<path d="" fill="#0C0E0D" transform="translate(0,0)"/>
<path d="" fill="#000000" transform="translate(0,0)"/>
<path d="" fill="#0B0C0B" transform="translate(0,0)"/>
<path d="" fill="#1D1E1E" transform="translate(0,0)"/>
<path d="" fill="#181818" transform="translate(0,0)"/>
<path d="" fill="#0F0F0F" transform="translate(0,0)"/>
<path d="" fill="#181818" transform="translate(0,0)"/>
<path d="" fill="#101111" transform="translate(0,0)"/>
<path d="" fill="#0F1010" transform="translate(0,0)"/>
<path d="" fill="#0C0D0C" transform="translate(0,0)"/>
<path d="" fill="#151615" transform="translate(0,0)"/>
<path d="" fill="#060606" transform="translate(0,0)"/>
<path d="" fill="#0F0F0F" transform="translate(0,0)"/>
<path d="" fill="#232423" transform="translate(0,0)"/>
<path d="" fill="#141514" transform="translate(0,0)"/>
<path d="" fill="#0C0C0C" transform="translate(0,0)"/>
<path d="" fill="#161716" transform="translate(0,0)"/>
<path d="" fill="#0E100F" transform="translate(0,0)"/>
<path d="" fill="#080808" transform="translate(0,0)"/>
<path d="" fill="#060606" transform="translate(0,0)"/>
<path d="" fill="#171818" transform="translate(0,0)"/>
<path d="" fill="#0C0D0C" transform="translate(0,0)"/>
<path d="" fill="#161716" transform="translate(0,0)"/>
<path d="" fill="#171818" transform="translate(0,0)"/>
<path d="" fill="#0C0D0C" transform="translate(0,0)"/>
<path d="" fill="#171817" transform="translate(0,0)"/>
<path d="" fill="#171817" transform="translate(0,0)"/>
<path d="" fill="#1D1E1E" transform="translate(0,0)"/>
<path d="" fill="#0C0D0D" transform="translate(0,0)"/>
<path d="" fill="#0D0E0E" transform="translate(0,0)"/>
<path d="" fill="#181918" transform="translate(0,0)"/>
<path d="" fill="#040404" transform="translate(0,0)"/>
<path d="" fill="#171818" transform="translate(0,0)"/>
<path d="" fill="#121413" transform="translate(0,0)"/>
<path d="" fill="#090909" transform="translate(0,0)"/>
<path d="" fill="#0F1010" transform="translate(0,0)"/>
<path d="" fill="#090A09" transform="translate(0,0)"/>
<path d="" fill="#040404" transform="translate(0,0)"/>
<path d="" fill="#161716" transform="translate(0,0)"/>
<path d="" fill="#0D0E0D" transform="translate(0,0)"/>
<path d="" fill="#0E0E0E" transform="translate(0,0)"/>
<path d="" fill="#0D0D0D" transform="translate(0,0)"/>
<path d="" fill="#0E0E0E" transform="translate(0,0)"/>
<path d="" fill="#0C0C0C" transform="translate(0,0)"/>
<path d="" fill="#0F0E0E" transform="translate(0,0)"/>
<path d="" fill="#161716" transform="translate(0,0)"/>
<path d="" fill="#0D0D0D" transform="translate(0,0)"/>
<path d="" fill="#181918" transform="translate(0,0)"/>
<path d="" fill="#1D1E1D" transform="translate(0,0)"/>
<path d="" fill="#0E0E0E" transform="translate(0,0)"/>
<path d="" fill="#0D0D0D" transform="translate(0,0)"/>
<path d="" fill="#171817" transform="translate(0,0)"/>
<path d="" fill="#161716" transform="translate(0,0)"/>
<path d="" fill="#161716" transform="translate(0,0)"/>
<path d="" fill="#090A09" transform="translate(0,0)"/>
<path d="" fill="#171817" transform="translate(0,0)"/>
<path d="" fill="#161717" transform="translate(0,0)"/>
<path d="" fill="#171817" transform="translate(0,0)"/>
<path d="" fill="#212221" transform="translate(0,0)"/>
<path d="" fill="#121212" transform="translate(0,0)"/>
<path d="" fill="#161716" transform="translate(0,0)"/>
<path d="" fill="#1F201F" transform="translate(0,0)"/>
<path d="" fill="#0B0B0B" transform="translate(0,0)"/>
<path d="" fill="#131414" transform="translate(0,0)"/>
<path d="" fill="#0C0C0C" transform="translate(0,0)"/>
<path d="" fill="#101010" transform="translate(0,0)"/>
<path d="" fill="#131414" transform="translate(0,0)"/>
<path d="" fill="#0F0F0F" transform="translate(0,0)"/>
<path d="" fill="#141514" transform="translate(0,0)"/>
<path d="" fill="#0E0E0E" transform="translate(0,0)"/>
<path d="" fill="#161716" transform="translate(0,0)"/>
<path d="" fill="#0C0C0C" transform="translate(0,0)"/>
<path d="" fill="#171818" transform="translate(0,0)"/>
<path d="" fill="#171817" transform="translate(0,0)"/>
<path d="" fill="#222323" transform="translate(0,0)"/>
<path d="" fill="#161716" transform="translate(0,0)"/>
<path d="" fill="#181918" transform="translate(0,0)"/>
<path d="" fill="#070807" transform="translate(0,0)"/>
<path d="" fill="#252626" transform="translate(0,0)"/>
<path d="" fill="#181918" transform="translate(0,0)"/>
<path d="" fill="#212221" transform="translate(0,0)"/>
<path d="" fill="#191A19" transform="translate(0,0)"/>
<path d="" fill="#0C0C0C" transform="translate(0,0)"/>
<path d="" fill="#000000" transform="translate(0,0)"/>
<path d="" fill="#010101" transform="translate(0,0)"/>
<path d="" fill="#181918" transform="translate(0,0)"/>
<path d="" fill="#0D0E0D" transform="translate(0,0)"/>
<path d="" fill="#0D0D0D" transform="translate(0,0)"/>
<path d="" fill="#171817" transform="translate(0,0)"/>
<path d="" fill="#0E0E0E" transform="translate(0,0)"/>
<path d="" fill="#0D0D0D" transform="translate(0,0)"/>
<path d="" fill="#141514" transform="translate(0,0)"/>
<path d="" fill="#171817" transform="translate(0,0)"/>
<path d="" fill="#070808" transform="translate(0,0)"/>
<path d="" fill="#0B0B0B" transform="translate(0,0)"/>
<path d="" fill="#10100F" transform="translate(0,0)"/>
<path d="" fill="#1D1E1D" transform="translate(0,0)"/>
<path d="" fill="#191A19" transform="translate(0,0)"/>
<path d="" fill="#161716" transform="translate(0,0)"/>
<path d="" fill="#111111" transform="translate(0,0)"/>
<path d="" fill="#171817" transform="translate(0,0)"/>
<path d="" fill="#0E0E0E" transform="translate(0,0)"/>
<path d="" fill="#0D0D0D" transform="translate(0,0)"/>
<path d="" fill="#191A19" transform="translate(0,0)"/>
<path d="" fill="#090A09" transform="translate(0,0)"/>
<path d="" fill="#0D0D0D" transform="translate(0,0)"/>
<path d="" fill="#0F100F" transform="translate(0,0)"/>
<path d="" fill="#161716" transform="translate(0,0)"/>
<path d="" fill="#0F100F" transform="translate(0,0)"/>
<path d="" fill="#171817" transform="translate(0,0)"/>
<path d="" fill="#171817" transform="translate(0,0)"/>
<path d="" fill="#1A2834" transform="translate(0,0)"/>
<path d="" fill="#162838" transform="translate(0,0)"/>
<path d="" fill="#0E0E0E" transform="translate(0,0)"/>
<path d="" fill="#090A0A" transform="translate(0,0)"/>
<path d="" fill="#151615" transform="translate(0,0)"/>
<path d="" fill="#1B1C1B" transform="translate(0,0)"/>
<path d="" fill="#0C0C0C" transform="translate(0,0)"/>
<path d="" fill="#090909" transform="translate(0,0)"/>
<path d="" fill="#0B0B0B" transform="translate(0,0)"/>
<path d="" fill="#0B0C0B" transform="translate(0,0)"/>
<path d="" fill="#0C0E0D" transform="translate(0,0)"/>
<path d="" fill="#171817" transform="translate(0,0)"/>
<path d="" fill="#1D1E1D" transform="translate(0,0)"/>
<path d="" fill="#0E0E0E" transform="translate(0,0)"/>
<path d="" fill="#171818" transform="translate(0,0)"/>
<path d="" fill="#0B0C0C" transform="translate(0,0)"/>
<path d="" fill="#0B0C0C" transform="translate(0,0)"/>
<path d="" fill="#181918" transform="translate(0,0)"/>
<path d="" fill="#0D0E0D" transform="translate(0,0)"/>
<path d="" fill="#161716" transform="translate(0,0)"/>
<path d="" fill="#141514" transform="translate(0,0)"/>
<path d="" fill="#171818" transform="translate(0,0)"/>
<path d="" fill="#18334D" transform="translate(0,0)"/>
<path d="" fill="#18324B" transform="translate(0,0)"/>
<path d="" fill="#090A0A" transform="translate(0,0)"/>
<path d="" fill="#171818" transform="translate(0,0)"/>
<path d="" fill="#181818" transform="translate(0,0)"/>
<path d="" fill="#0E0E0E" transform="translate(0,0)"/>
<path d="" fill="#101110" transform="translate(0,0)"/>
<path d="" fill="#181918" transform="translate(0,0)"/>
<path d="" fill="#0A0B0A" transform="translate(0,0)"/>
<path d="" fill="#151615" transform="translate(0,0)"/>
<path d="" fill="#0A0B0A" transform="translate(0,0)"/>
<path d="" fill="#233C54" transform="translate(0,0)"/>
<path d="" fill="#232424" transform="translate(0,0)"/>
<path d="" fill="#181918" transform="translate(0,0)"/>
<path d="" fill="#0D0D0D" transform="translate(0,0)"/>
<path d="" fill="#12283E" transform="translate(0,0)"/>
<path d="" fill="#181818" transform="translate(0,0)"/>
<path d="" fill="#1A3957" transform="translate(0,0)"/>
<path d="" fill="#161717" transform="translate(0,0)"/>
<path d="" fill="#232423" transform="translate(0,0)"/>
<path d="" fill="#101010" transform="translate(0,0)"/>
<path d="" fill="#193856" transform="translate(0,0)"/>
<path d="" fill="#1A3C5F" transform="translate(0,0)"/>
<path d="" fill="#161717" transform="translate(0,0)"/>
<path d="" fill="#171818" transform="translate(0,0)"/>
<path d="" fill="#010101" transform="translate(0,0)"/>
<path d="" fill="#161717" transform="translate(0,0)"/>
<path d="" fill="#0E0E0E" transform="translate(0,0)"/>
<path d="" fill="#171817" transform="translate(0,0)"/>
<path d="" fill="#0D0E0E" transform="translate(0,0)"/>
<path d="" fill="#1A3855" transform="translate(0,0)"/>
<path d="" fill="#20578E" transform="translate(0,0)"/>
<path d="" fill="#090A09" transform="translate(0,0)"/>
<path d="" fill="#191919" transform="translate(0,0)"/>
<path d="" fill="#0F100F" transform="translate(0,0)"/>
<path d="" fill="#171717" transform="translate(0,0)"/>
<path d="" fill="#175899" transform="translate(0,0)"/>
<path d="" fill="#171717" transform="translate(0,0)"/>
<path d="" fill="#151615" transform="translate(0,0)"/>
<path d="" fill="#191919" transform="translate(0,0)"/>
<path d="" fill="#040404" transform="translate(0,0)"/>
<path d="" fill="#212121" transform="translate(0,0)"/>
<path d="" fill="#212221" transform="translate(0,0)"/>
<path d="" fill="#0C0C0C" transform="translate(0,0)"/>
<path d="" fill="#1E67AF" transform="translate(0,0)"/>
<path d="" fill="#0A0B0A" transform="translate(0,0)"/>
<path d="" fill="#050605" transform="translate(0,0)"/>
<path d="" fill="#0F0F10" transform="translate(0,0)"/>
<path d="" fill="#181817" transform="translate(0,0)"/>
<path d="" fill="#2573C1" transform="translate(0,0)"/>
<path d="" fill="#2066AB" transform="translate(0,0)"/>
<path d="" fill="#1C1D1C" transform="translate(0,0)"/>
<path d="" fill="#070707" transform="translate(0,0)"/>
<path d="" fill="#222322" transform="translate(0,0)"/>
<path d="" fill="#14191B" transform="translate(0,0)"/>
<path d="" fill="#161717" transform="translate(0,0)"/>
<path d="" fill="#111211" transform="translate(0,0)"/>
<path d="" fill="#101111" transform="translate(0,0)"/>
<path d="" fill="#0D0D0D" transform="translate(0,0)"/>
<path d="" fill="#161717" transform="translate(0,0)"/>
<path d="" fill="#0F0F0F" transform="translate(0,0)"/>
<path d="" fill="#020303" transform="translate(0,0)"/>
<path d="" fill="#1B456E" transform="translate(0,0)"/>
<path d="" fill="#202120" transform="translate(0,0)"/>
<path d="" fill="#171817" transform="translate(0,0)"/>
<path d="" fill="#175899" transform="translate(0,0)"/>
<path d="" fill="#0B0B0B" transform="translate(0,0)"/>
<path d="" fill="#17191B" transform="translate(0,0)"/>
<path d="" fill="#171F26" transform="translate(0,0)"/>
<path d="" fill="#0E0E0E" transform="translate(0,0)"/>
<path d="" fill="#0D0D0D" transform="translate(0,0)"/>
<path d="" fill="#0E0F0E" transform="translate(0,0)"/>
<path d="" fill="#1C4976" transform="translate(0,0)"/>
<path d="" fill="#0D0E0D" transform="translate(0,0)"/>
<path d="" fill="#0E0F0E" transform="translate(0,0)"/>
<path d="" fill="#161717" transform="translate(0,0)"/>
<path d="" fill="#202120" transform="translate(0,0)"/>
<path d="" fill="#05070B" transform="translate(0,0)"/>
<path d="" fill="#0C0C0C" transform="translate(0,0)"/>
<path d="" fill="#161717" transform="translate(0,0)"/>
<path d="" fill="#171817" transform="translate(0,0)"/>
<path d="" fill="#191A19" transform="translate(0,0)"/>
<path d="" fill="#0B0B0B" transform="translate(0,0)"/>
<path d="" fill="#181818" transform="translate(0,0)"/>
<path d="" fill="#181918" transform="translate(0,0)"/>
<path d="" fill="#0D0E0D" transform="translate(0,0)"/>
<path d="" fill="#0D0D0E" transform="translate(0,0)"/>
<path d="" fill="#1D4B79" transform="translate(0,0)"/>
<path d="" fill="#2879CC" transform="translate(0,0)"/>
<path d="" fill="#111314" transform="translate(0,0)"/>
<path d="" fill="#030303" transform="translate(0,0)"/>
<path d="" fill="#172531" transform="translate(0,0)"/>
<path d="" fill="#1D4E7F" transform="translate(0,0)"/>
<path d="" fill="#172531" transform="translate(0,0)"/>
<path d="" fill="#123961" transform="translate(0,0)"/>
<path d="" fill="#070808" transform="translate(0,0)"/>
<path d="" fill="#030A13" transform="translate(0,0)"/>
<path d="" fill="#0F1318" transform="translate(0,0)"/>
<path d="" fill="#0D1C2E" transform="translate(0,0)"/>
<path d="" fill="#215F9E" transform="translate(0,0)"/>
<path d="" fill="#215C98" transform="translate(0,0)"/>
<path d="" fill="#121B22" transform="translate(0,0)"/>
<path d="" fill="#0E1F34" transform="translate(0,0)"/>
<path d="" fill="#2472C0" transform="translate(0,0)"/>
<path d="" fill="#277BCF" transform="translate(0,0)"/>
<path d="" fill="#205A94" transform="translate(0,0)"/>
<path d="" fill="#277BCD" transform="translate(0,0)"/>
<path d="" fill="#205A94" transform="translate(0,0)"/>
<path d="" fill="#215C98" transform="translate(0,0)"/>
<path d="" fill="#1E5387" transform="translate(0,0)"/>
<path d="" fill="#256AAC" transform="translate(0,0)"/>
<path d="" fill="#294F75" transform="translate(0,0)"/>
<path d="" fill="#1C4268" transform="translate(0,0)"/>
<path d="" fill="#1C4268" transform="translate(0,0)"/>
<path d="" fill="#1E4974" transform="translate(0,0)"/>
<path d="" fill="#1D4976" transform="translate(0,0)"/>
<path d="" fill="#1D4C7C" transform="translate(0,0)"/>
<path d="" fill="#1D4873" transform="translate(0,0)"/>
<path d="" fill="#1B4166" transform="translate(0,0)"/>
<path d="" fill="#1E4B77" transform="translate(0,0)"/>
<path d="" fill="#1F69B4" transform="translate(0,0)"/>
<path d="" fill="#2875C3" transform="translate(0,0)"/>
<path d="" fill="#2C7DD0" transform="translate(0,0)"/>
<path d="" fill="#131413" transform="translate(0,0)"/>
<path d="" fill="#0E0F10" transform="translate(0,0)"/>
<path d="" fill="#1F384F" transform="translate(0,0)"/>
<path d="" fill="#131413" transform="translate(0,0)"/>
<path d="" fill="#193551" transform="translate(0,0)"/>
<path d="" fill="#0E0E0E" transform="translate(0,0)"/>
<path d="" fill="#0D0D0D" transform="translate(0,0)"/>
<path d="" fill="#0E0F0F" transform="translate(0,0)"/>
<path d="" fill="#1A3A5A" transform="translate(0,0)"/>
<path d="" fill="#0F0F0F" transform="translate(0,0)"/>
<path d="" fill="#101010" transform="translate(0,0)"/>
<path d="" fill="#070808" transform="translate(0,0)"/>
<path d="" fill="#10151C" transform="translate(0,0)"/>
<path d="" fill="#0C0C0C" transform="translate(0,0)"/>
<path d="" fill="#0E151D" transform="translate(0,0)"/>
<path d="" fill="#131413" transform="translate(0,0)"/>
<path d="" fill="#0B0C0B" transform="translate(0,0)"/>
<path d="" fill="#0D0E0D" transform="translate(0,0)"/>
<path d="" fill="#0D0D0D" transform="translate(0,0)"/>
<path d="" fill="#1E4B79" transform="translate(0,0)"/>
<path d="" fill="#1E466E" transform="translate(0,0)"/>
<path d="" fill="#1E4D7B" transform="translate(0,0)"/>
<path d="" fill="#1E4F7F" transform="translate(0,0)"/>
<path d="" fill="#0B0B0B" transform="translate(0,0)"/>
<path d="" fill="#14222F" transform="translate(0,0)"/>
<path d="" fill="#205B96" transform="translate(0,0)"/>
<path d="" fill="#264D74" transform="translate(0,0)"/>
<path d="" fill="#287BCC" transform="translate(0,0)"/>
<path d="" fill="#143351" transform="translate(0,0)"/>
<path d="" fill="#1C456F" transform="translate(0,0)"/>
<path d="" fill="#1C6AB5" transform="translate(0,0)"/>
<path d="" fill="#08162D" transform="translate(0,0)"/>
<path d="" fill="#121312" transform="translate(0,0)"/>
<path d="" fill="#0D0E0E" transform="translate(0,0)"/>
<path d="" fill="#0B1E31" transform="translate(0,0)"/>
<path d="" fill="#1D374F" transform="translate(0,0)"/>
<path d="" fill="#0F60B2" transform="translate(0,0)"/>
<path d="" fill="#0A5EB2" transform="translate(0,0)"/>
<path d="" fill="#131515" transform="translate(0,0)"/>
<path d="" fill="#202B34" transform="translate(0,0)"/>
<path d="" fill="#202D39" transform="translate(0,0)"/>
<path d="" fill="#20303F" transform="translate(0,0)"/>
<path d="" fill="#205A95" transform="translate(0,0)"/>
<path d="" fill="#2985E3" transform="translate(0,0)"/>
<path d="" fill="#2985E3" transform="translate(0,0)"/>
<path d="" fill="#246AB2" transform="translate(0,0)"/>
<path d="" fill="#111312" transform="translate(0,0)"/>
<path d="" fill="#131515" transform="translate(0,0)"/>
<path d="" fill="#152431" transform="translate(0,0)"/>
<path d="" fill="#172B3E" transform="translate(0,0)"/>
</svg>
