<?xml version="1.0" encoding="UTF-8"?>
<svg version="1.1" xmlns="http://www.w3.org/2000/svg" width="600" height="600">
<path d="M0 0 C1.09092453 0.00652588 1.09092453 0.00652588 2.20388794 0.01318359 C4.60333764 0.03292831 7.00116341 0.08199929 9.40014648 0.13256836 C11.06874378 0.15486246 12.73735979 0.17579365 14.4059906 0.19541931 C17.90071888 0.24097409 21.39483802 0.30060846 24.88916016 0.37060547 C29.37040434 0.45958692 33.8513859 0.51736462 38.33323765 0.56511784 C41.77777223 0.60460089 45.22195577 0.65865809 48.66621208 0.71734428 C50.31878543 0.74410555 51.97143045 0.7667628 53.6241169 0.78526497 C55.93224528 0.81367333 58.23919416 0.86120971 60.546875 0.9140625 C61.86051529 0.93723038 63.17415558 0.96039825 64.52760315 0.98426819 C67.70874023 1.40991211 67.70874023 1.40991211 69.59385681 2.75340271 C71.50966395 5.59993578 71.84898669 8.20958077 71.96166992 11.54248047 C71.99129822 12.37021469 72.02092651 13.19794891 72.05145264 14.05076599 C72.07757629 14.94143265 72.10369995 15.8320993 72.13061523 16.74975586 C72.15851135 17.66825821 72.18640747 18.58676056 72.21514893 19.53309631 C72.27152485 21.47560141 72.32514478 23.41818816 72.3762207 25.36083984 C72.45833955 28.3329103 72.56187543 31.30376846 72.66577148 34.27514648 C72.71788337 36.16248 72.76870751 38.04984961 72.81811523 39.93725586 C72.85233582 40.82589828 72.8865564 41.71454071 72.92181396 42.63011169 C73.0476669 48.77415515 73.0476669 48.77415515 71.3269043 52.00195312 C69.70874023 53.40991211 69.70874023 53.40991211 67.70874023 53.40991211 C67.21374023 54.39991211 67.21374023 54.39991211 66.70874023 55.40991211 C64.35489981 56.02185003 62.02517643 56.54246069 59.64624023 57.03491211 C41.30288046 61.23626694 22.04582133 72.41117882 11.70874023 88.40991211 C11.08999023 89.54428711 10.47124023 90.67866211 9.83374023 91.84741211 C7.73888277 94.40627709 6.50241223 94.43533748 3.12670898 94.85131836 C-0.72798204 94.97070322 -4.46121618 94.88130209 -8.29125977 94.40991211 C-12.19451399 90.50665788 -11.44983757 85.54867418 -11.46826172 80.30834961 C-11.47483292 79.49489075 -11.48140411 78.68143188 -11.48817444 77.84332275 C-11.50785241 75.15718489 -11.51955458 72.47110265 -11.52954102 69.78491211 C-11.53361654 68.86683777 -11.53769207 67.94876343 -11.5418911 67.00286865 C-11.56272322 62.14831773 -11.57704018 57.29379489 -11.58642578 52.43920898 C-11.5975152 47.4219101 -11.63195219 42.40505167 -11.67159748 37.38790894 C-11.69770627 33.53091594 -11.70611224 29.67402916 -11.70970726 25.81695557 C-11.71458407 23.96694954 -11.72622908 22.1169486 -11.74474525 20.26702881 C-11.76902657 17.68148446 -11.76819277 15.09709744 -11.76123047 12.51147461 C-11.77404053 11.74667786 -11.78685059 10.9818811 -11.80004883 10.19390869 C-11.76753933 6.88619111 -11.5047321 4.74642931 -9.71759033 1.92918396 C-6.35071091 -0.17902224 -3.96115066 -0.05303507 0 0 Z " fill="#43789E" transform="translate(97.291259765625,193.590087890625)"/>
<path d="M0 0 C-0.33 0.66 -0.66 1.32 -1 2 C-1.08470713 3.47889082 -1.10720854 4.96158715 -1.09765625 6.44287109 C-1.09435303 7.36498383 -1.0910498 8.28709656 -1.08764648 9.2371521 C-1.07519897 10.74011337 -1.07519897 10.74011337 -1.0625 12.2734375 C-1.05871338 13.30755768 -1.05492676 14.34167786 -1.05102539 15.40713501 C-1.03469523 19.83706518 -1.00684111 24.26690354 -0.97949219 28.69677734 C-0.96121895 31.93065958 -0.94923301 35.1645259 -0.9375 38.3984375 C-0.92505249 39.87103531 -0.92505249 39.87103531 -0.91235352 41.37338257 C-0.87830817 51.20221239 -0.92620624 60.92676502 -4.6875 70.125 C-4.95731689 70.80530273 -5.22713379 71.48560547 -5.50512695 72.18652344 C-12.73717252 89.91398302 -27.31065965 105.91240217 -45.1875 113.5 C-46.77887969 114.03931565 -48.38446408 114.53805371 -50 115 C-51.01191406 115.30550781 -52.02382812 115.61101562 -53.06640625 115.92578125 C-58.59200032 117.46481175 -62.32294806 118.05867488 -68 117 C-68.10247897 109.46024354 -68.17191236 101.92067045 -68.21972656 94.38037109 C-68.2396859 91.8220346 -68.26686311 89.26374278 -68.30175781 86.70556641 C-68.63694077 61.47811983 -66.1388381 41.72239969 -49 22 C-48.1454902 20.87526061 -47.29127203 19.75029952 -46.4375 18.625 C-43.51329324 15.47585426 -40.78650109 14.00041567 -37 12 C-36.34 11.34 -35.68 10.68 -35 10 C-11.91036003 -2.97759001 -11.91036003 -2.97759001 0 0 Z " fill="#1F2931" transform="translate(170,258)"/>
<path d="M0 0 C5.28142192 6.80144092 7.0062726 13.57481921 5.9375 22.125 C4.71614427 28.20873419 3.29987868 33.62702033 -1.6875 37.625 C-9.33209947 42.409953 -16.95645725 45.48665125 -26.0625 44.125 C-33.79297162 42.24525006 -39.18796272 38.37380441 -44.0625 32.125 C-45.46703564 29.76900474 -46.1932558 27.78102396 -47.0625 25.125 C-47.51625 24.0525 -47.97 22.98 -48.4375 21.875 C-49.61970408 14.78177554 -47.09483274 8.37059586 -43.4375 2.3125 C-39.0688949 -3.78602892 -32.90394253 -7.85216003 -25.56640625 -9.40234375 C-15.22843167 -10.84389399 -7.17732357 -7.61459748 0 0 Z " fill="#1D2830" transform="translate(231.0625,202.875)"/>
<path d="M0 0 C3.31232698 -0.08834684 6.62434435 -0.14083584 9.9375 -0.1875 C10.86369141 -0.21263672 11.78988281 -0.23777344 12.74414062 -0.26367188 C20.2686637 -0.34287738 26.53583294 0.78882953 32.9375 4.875 C36.37294754 8.41455201 36.90983969 11.0533167 37.375 15.9375 C37.28640823 20.19795878 35.62761984 22.65575657 33 26 C32.67 26.66 32.34 27.32 32 28 C33.2065625 28.86625 33.2065625 28.86625 34.4375 29.75 C37.0752866 32.06610531 37.43532523 32.72488632 38 36 C38.99 36.495 38.99 36.495 40 37 C39.73103369 43.05174197 39.09093541 47.24566965 35 52 C29.87881281 55.8670189 26.37083928 57.12863824 20.01953125 57.09765625 C18.85615234 57.09443359 17.69277344 57.09121094 16.49414062 57.08789062 C15.27919922 57.07951172 14.06425781 57.07113281 12.8125 57.0625 C11.58595703 57.05798828 10.35941406 57.05347656 9.09570312 57.04882812 C6.06375332 57.03703065 3.03190094 57.02056921 0 57 C-1.08434404 50.8553838 -1.1521573 44.85517484 -1.125 38.625 C-1.12306641 37.54677979 -1.12113281 36.46855957 -1.11914062 35.35766602 C-1.0577368 23.56045519 -0.56978731 11.78217108 0 0 Z M11 10 C11 14.62 11 19.24 11 24 C13.6296875 24.061875 13.6296875 24.061875 16.3125 24.125 C17.79169922 24.15980469 17.79169922 24.15980469 19.30078125 24.1953125 C22.22406527 24.20682639 22.22406527 24.20682639 25 22 C26.01392404 19.33844941 26.25181846 16.83155873 26 14 C24.30853694 11.24378681 24.30853694 11.24378681 21 10 C17.59017404 9.68812567 14.4390788 9.81658246 11 10 Z M11 33 C11 37.95 11 42.9 11 48 C16.45486849 48.19139889 20.78555016 47.87720194 26 46 C28.41121859 44.04366025 28.41121859 44.04366025 28.125 40.375 C28.08375 39.26125 28.0425 38.1475 28 37 C27.01 36.67 26.02 36.34 25 36 C25 35.34 25 34.68 25 34 C21.84493858 33.06380187 19.03413498 32.8942877 15.75 32.9375 C13.39875 32.9684375 13.39875 32.9684375 11 33 Z " fill="#122D4A" transform="translate(374,322)"/>
<path d="M0 0 C4.58797588 2.72007576 8.05448677 6.24178604 10.45703125 11.046875 C10.49702325 13.04647512 10.50049924 15.04734742 10.45703125 17.046875 C6.48227284 18.09901693 3.40058314 18.33281584 -0.54296875 17.046875 C-2.29296875 14.046875 -2.29296875 14.046875 -3.54296875 11.046875 C-6.99047265 9.32312305 -10.77301216 9.55155224 -14.54296875 10.046875 C-16.90128714 11.54947196 -16.90128714 11.54947196 -17.54296875 14.046875 C-17.03233104 16.63021537 -17.03233104 16.63021537 -15.54296875 19.046875 C-13.05000232 20.52180209 -13.05000232 20.52180209 -10.04296875 21.484375 C7.39252262 28.11447762 7.39252262 28.11447762 10.76953125 34.546875 C11.73662491 39.47026091 11.36535266 43.39027603 9.45703125 48.046875 C5.76762911 52.85835808 0.77564879 56.10917424 -5.05078125 57.7421875 C-11.28904914 58.50485975 -17.85728976 57.11979702 -23.54296875 54.484375 C-27.36095754 51.38225911 -29.59004609 47.92309187 -30.54296875 43.046875 C-29.77734375 40.8203125 -29.77734375 40.8203125 -28.54296875 39.046875 C-25.6822411 37.96443751 -23.96340307 37.95458454 -20.98046875 38.609375 C-18.54296875 40.046875 -18.54296875 40.046875 -16.73046875 43.109375 C-14.92379252 46.10735877 -14.92379252 46.10735877 -12.69140625 46.6953125 C-8.80523998 47.2338449 -5.34864024 47.11722011 -1.54296875 46.046875 C-1.54296875 43.076875 -1.54296875 40.106875 -1.54296875 37.046875 C-2.84621094 36.61955078 -2.84621094 36.61955078 -4.17578125 36.18359375 C-24.38595549 29.36090152 -24.38595549 29.36090152 -28.54296875 21.046875 C-29.61029609 16.79337789 -30.35012788 12.85147411 -28.515625 8.75 C-21.72260972 -0.83589954 -11.32561068 -4.24492935 0 0 Z " fill="#122C49" transform="translate(207.54296875,322.953125)"/>
<path d="M0 0 C3.63 0 7.26 0 11 0 C11 6.6 11 13.2 11 20 C12.65 19.01 14.3 18.02 16 17 C21.21889659 16.15677217 25.69685204 16.39496702 30.5 18.625 C35.34078826 23.22374885 36.862689 28.4266659 37.11352539 34.9543457 C37.10828857 36.01741943 37.10305176 37.08049316 37.09765625 38.17578125 C37.09443359 39.33271484 37.09121094 40.48964844 37.08789062 41.68164062 C37.07532227 43.47891602 37.07532227 43.47891602 37.0625 45.3125 C37.05798828 46.53001953 37.05347656 47.74753906 37.04882812 49.00195312 C37.03706578 52.00135226 37.02062826 55.00065089 37 58 C33.37 58 29.74 58 26 58 C25.505 44.14 25.505 44.14 25 30 C24.34 29.67 23.68 29.34 23 29 C22.67 28.67 22.34 28.34 22 28 C17.42864829 27.51785985 17.42864829 27.51785985 13.30541992 29.12817383 C11.43000195 31.81731345 11.56474719 33.94176986 11.48828125 37.19921875 C11.45283203 38.40771484 11.41738281 39.61621094 11.38085938 40.86132812 C11.34702148 42.7552832 11.34702148 42.7552832 11.3125 44.6875 C11.27833984 45.96173828 11.24417969 47.23597656 11.20898438 48.54882812 C11.12639216 51.69913103 11.05727665 54.84915157 11 58 C7.37 58 3.74 58 0 58 C-0.167903 50.70440546 -0.32843257 43.40869962 -0.48217773 36.11279297 C-0.53549602 33.63162894 -0.5908171 31.1505071 -0.64819336 28.66943359 C-0.73038834 25.10002741 -0.8053431 21.53053074 -0.87890625 17.9609375 C-0.90594131 16.85446869 -0.93297638 15.74799988 -0.96083069 14.60800171 C-1.05733014 9.61106623 -1.10626624 4.90928922 0 0 Z " fill="#122D4A" transform="translate(331,321)"/>
<path d="M0 0 C0 0.66 0 1.32 0 2 C1.13695312 2.37511719 1.13695312 2.37511719 2.296875 2.7578125 C6.88083988 4.86431659 8.97193196 8.48528801 11 13 C11.73997836 17.01222033 11.98620715 20.9242139 12 25 C2.98175113 26.06996173 -5.93664124 26.10234659 -15 26 C-13.79420975 29.62625888 -13.79420975 29.62625888 -11.25 32.3125 C-7.25687892 33.53262033 -3.92994589 33.30998196 0 32 C0 31.34 0 30.68 0 30 C3.81756824 28.62567543 7.07255329 29.32024961 11 30 C9.74784899 35.84337138 6.78100896 38.73102506 2 42 C-3.76912355 43.92304118 -10.7178877 44.14719599 -16.4921875 42.12890625 C-22.07134943 38.91825646 -24.81434526 34.75457335 -26.75 28.625 C-26.8325 27.75875 -26.915 26.8925 -27 26 C-27.07476562 25.35417969 -27.14953125 24.70835937 -27.2265625 24.04296875 C-27.66535743 17.44949763 -25.87297092 12.33890851 -22 7 C-15.4504876 0.63098597 -8.74271117 0 0 0 Z M-13 11 C-13.66 12.65 -14.32 14.3 -15 16 C-9.72 16 -4.44 16 1 16 C-1.09099816 11.81800367 -1.99318733 11.00340633 -6 9 C-8.79207427 9 -10.52858057 9.7025048 -13 11 Z " fill="#132C49" transform="translate(520,337)"/>
<path d="M0 0 C7.62332171 -0.69654716 13.04578098 -0.51124257 19.21875 4.30859375 C22.63234362 7.5500105 23.89015562 10.10910752 24.1640625 14.82421875 C24.18506628 17.55821057 24.13118123 20.269487 24 23 C24.66 23.33 25.32 23.66 26 24 C25.34 24 24.68 24 24 24 C24.08378906 24.79664063 24.16757812 25.59328125 24.25390625 26.4140625 C25.26537786 36.93848858 25.26537786 36.93848858 24 42 C20.7 42 17.4 42 14 42 C13.67 41.34 13.34 40.68 13 40 C12.401875 40.495 11.80375 40.99 11.1875 41.5 C6.4782596 43.71611313 2.11942984 43.67657663 -3 43 C-7.39635032 40.8803311 -10.2231128 38.59900217 -12 34 C-12.0974083 27.96068546 -10.72683022 24.92772893 -6.765625 20.4453125 C-2.68774407 17.10722413 1.16996152 16.76197718 6.3125 16.875 C7.38113281 16.89304687 8.44976562 16.91109375 9.55078125 16.9296875 C10.35902344 16.95289063 11.16726563 16.97609375 12 17 C12 15.02 12 13.04 12 11 C10.37581255 10.91909029 8.75048255 10.86085005 7.125 10.8125 C6.22007812 10.77769531 5.31515625 10.74289062 4.3828125 10.70703125 C3.59648437 10.80371094 2.81015625 10.90039062 2 11 C1.01 12.485 1.01 12.485 0 14 C-2.3828125 14.29296875 -2.3828125 14.29296875 -5.125 14.1875 C-6.03507812 14.16042969 -6.94515625 14.13335937 -7.8828125 14.10546875 C-8.58148438 14.07066406 -9.28015625 14.03585937 -10 14 C-10.17013628 10.49753944 -10.21285887 9.31561832 -8.1875 6.3125 C-6 4 -6 4 -3 2 C-2.01 2 -1.02 2 0 2 C0 1.34 0 0.68 0 0 Z M0.3125 26.75 C-1.15326929 28.8730608 -1.15326929 28.8730608 -1.125 31.125 C-0.06000636 33.26369095 -0.06000636 33.26369095 2.6875 34.4375 C6.02684791 35.2485542 6.02684791 35.2485542 9.3125 34.0625 C12.37073532 32.164804 12.37073532 32.164804 12.875 28.3125 C12.91625 27.219375 12.9575 26.12625 13 25 C6.32923062 24.39214257 6.32923062 24.39214257 0.3125 26.75 Z " fill="#142F4D" transform="translate(428,337)"/>
<path d="M0 0 C3.83404821 4.84894332 4.37944649 9.34056644 4.1015625 15.3984375 C4.05 16.64238281 3.9984375 17.88632812 3.9453125 19.16796875 C3.88085938 20.45316406 3.81640625 21.73835938 3.75 23.0625 C3.66492188 25.02509766 3.66492188 25.02509766 3.578125 27.02734375 C3.43707513 30.24798242 3.28569958 33.46779186 3.125 36.6875 C0.80309021 37.09282761 -1.53295348 37.42221965 -3.875 37.6875 C-5.8125 36.25 -5.8125 36.25 -6.875 34.6875 C-7.65875 35.1825 -8.4425 35.6775 -9.25 36.1875 C-13.93586014 38.12647661 -17.86758281 38.4284349 -22.875 37.6875 C-26.72850036 35.725718 -29.91656444 33.60437112 -31.875 29.6875 C-32.40126722 25.02627605 -32.33988884 22.69475916 -30.375 18.4375 C-26.35665665 14.01732231 -22.7121838 11.90307034 -16.6875 11.4453125 C-13.73819478 11.43835659 -10.81857286 11.51088563 -7.875 11.6875 C-8.535 9.7075 -9.195 7.7275 -9.875 5.6875 C-11.33242463 5.60653197 -12.79112807 5.54832226 -14.25 5.5 C-15.46816406 5.44779297 -15.46816406 5.44779297 -16.7109375 5.39453125 C-17.42507813 5.49121094 -18.13921875 5.58789062 -18.875 5.6875 C-19.865 7.1725 -19.865 7.1725 -20.875 8.6875 C-23.2578125 8.98046875 -23.2578125 8.98046875 -26 8.875 C-26.91007812 8.84792969 -27.82015625 8.82085937 -28.7578125 8.79296875 C-29.45648438 8.75816406 -30.15515625 8.72335937 -30.875 8.6875 C-30.79930022 5.5081091 -30.50731963 3.37860312 -28.3203125 0.98828125 C-19.49991082 -6.56944882 -9.28527681 -7.46859222 0 0 Z M-20.875 22.6875 C-21.20925735 25.31375139 -21.20925735 25.31375139 -20.875 27.6875 C-17.6434709 29.04023311 -15.65262788 29.86834369 -12.1875 29.0625 C-9.59979248 27.5238631 -8.34145572 26.31168393 -6.875 23.6875 C-6.875 22.3675 -6.875 21.0475 -6.875 19.6875 C-8.45746707 19.60596067 -10.04116273 19.54806443 -11.625 19.5 C-12.50671875 19.46519531 -13.3884375 19.43039062 -14.296875 19.39453125 C-17.36701421 19.74341071 -18.68481386 20.53787286 -20.875 22.6875 Z " fill="#15304E" transform="translate(283.875,342.3125)"/>
<path d="M0 0 C1.54296875 1.0234375 1.54296875 1.0234375 3.91796875 3.2109375 C4.51609375 3.6646875 5.11421875 4.1184375 5.73046875 4.5859375 C7.46850891 6.96430824 7.59802731 9.33146455 7.91796875 12.2109375 C6.31464084 12.29215674 4.71012849 12.35022884 3.10546875 12.3984375 C1.76548828 12.45064453 1.76548828 12.45064453 0.3984375 12.50390625 C-2.58784377 12.15119586 -3.08712449 11.33594687 -5.08203125 9.2109375 C-7.12303363 8.64075942 -7.12303363 8.64075942 -9.26953125 8.5234375 C-11.15671875 8.36875 -11.15671875 8.36875 -13.08203125 8.2109375 C-13.08203125 8.8709375 -13.08203125 9.5309375 -13.08203125 10.2109375 C-13.74203125 10.2109375 -14.40203125 10.2109375 -15.08203125 10.2109375 C-11.76026024 14.50256866 -6.54434809 14.77077366 -1.52734375 15.953125 C2.89629979 17.56810598 5.79305985 19.96111971 7.91796875 24.2109375 C8.19266689 28.97237195 8.18576841 32.95881313 5.91796875 37.2109375 C0.71626453 41.71536233 -5.49418395 41.75986573 -12.0859375 41.53125 C-17.19259036 40.98529754 -19.88008628 39.41288247 -23.45703125 35.8359375 C-25.27195717 32.90413409 -25.22787032 31.5652361 -25.08203125 28.2109375 C-23.4578438 28.13002779 -21.8325138 28.07178755 -20.20703125 28.0234375 C-19.30210937 27.98863281 -18.3971875 27.95382812 -17.46484375 27.91796875 C-16.28535156 28.06298828 -16.28535156 28.06298828 -15.08203125 28.2109375 C-14.42203125 29.2009375 -13.76203125 30.1909375 -13.08203125 31.2109375 C-10.87478052 31.57456568 -10.87478052 31.57456568 -8.45703125 31.3984375 C-7.23113281 31.35783203 -7.23113281 31.35783203 -5.98046875 31.31640625 C-5.04074219 31.26419922 -5.04074219 31.26419922 -4.08203125 31.2109375 C-4.08203125 29.8909375 -4.08203125 28.5709375 -4.08203125 27.2109375 C-5.10683594 26.89640625 -6.13164062 26.581875 -7.1875 26.2578125 C-8.54835838 25.82609191 -9.90902552 25.39376816 -11.26953125 24.9609375 C-11.94306641 24.75597656 -12.61660156 24.55101562 -13.31054688 24.33984375 C-17.60963197 22.95574806 -20.73129508 21.3660563 -24.08203125 18.2109375 C-25.25838422 15.85823157 -25.21562484 14.3901855 -25.20703125 11.7734375 C-25.20960938 10.99097656 -25.2121875 10.20851563 -25.21484375 9.40234375 C-25.08203125 7.2109375 -25.08203125 7.2109375 -24.08203125 4.2109375 C-17.18428996 -0.88739302 -8.39275153 -3.18074261 0 0 Z " fill="#122B47" transform="translate(482.08203125,338.7890625)"/>
<path d="M0 0 C3.19334763 2.01319742 4.46392235 3.32630816 5.875 6.8125 C5.91653158 8.47864912 5.92236102 10.14650639 5.875 11.8125 C4.25081255 11.89340971 2.62548255 11.95164995 1 12 C0.09507812 12.03480469 -0.80984375 12.06960938 -1.7421875 12.10546875 C-2.92167969 11.96044922 -2.92167969 11.96044922 -4.125 11.8125 C-4.785 10.8225 -5.445 9.8325 -6.125 8.8125 C-9.46368884 7.75817721 -11.81018735 7.70756245 -15.125 8.8125 C-15.125 9.8025 -15.125 10.7925 -15.125 11.8125 C-14.11179687 12.11542969 -13.09859375 12.41835938 -12.0546875 12.73046875 C-10.70289311 13.1529045 -9.35134334 13.57612358 -8 14 C-7.33484375 14.19658203 -6.6696875 14.39316406 -5.984375 14.59570312 C-1.05599126 16.16602147 2.1746697 18.16832039 5.875 21.8125 C7.20588156 26.04000613 7.0432886 28.26088737 5.75 32.5 C2.85488987 37.61469457 -0.6204884 39.98837718 -6.125 41.8125 C-12.65129972 42.09749125 -18.15661323 41.29616611 -23.125 36.8125 C-27.125 31.65460526 -27.125 31.65460526 -27.125 27.8125 C-25.33406809 27.73163853 -23.54210372 27.67337298 -21.75 27.625 C-20.25339844 27.57279297 -20.25339844 27.57279297 -18.7265625 27.51953125 C-17.86804688 27.61621094 -17.00953125 27.71289062 -16.125 27.8125 C-15.465 28.8025 -14.805 29.7925 -14.125 30.8125 C-12.14752878 31.17547936 -12.14752878 31.17547936 -10 31 C-8.72125 30.938125 -7.4425 30.87625 -6.125 30.8125 C-5.795 29.4925 -5.465 28.1725 -5.125 26.8125 C-6.23359375 26.48636719 -7.3421875 26.16023438 -8.484375 25.82421875 C-9.94804583 25.383241 -11.41158044 24.94181092 -12.875 24.5 C-13.60460937 24.28666016 -14.33421875 24.07332031 -15.0859375 23.85351562 C-22.33245457 21.64662179 -22.33245457 21.64662179 -25.125 18.8125 C-27.15603076 14.42751308 -27.3320188 10.65437644 -26.1875 6 C-20.50180082 -2.78698963 -9.38477062 -3.47436189 0 0 Z " fill="#122A47" transform="translate(319.125,339.1875)"/>
<path d="M0 0 C3.63 0 7.26 0 11 0 C11 3.96 11 7.92 11 12 C12.65 11.67 14.3 11.34 16 11 C19.3125 11.4375 19.3125 11.4375 22 12 C22 14.97 22 17.94 22 21 C18 22 18 22 11 21 C11.33 27.93 11.66 34.86 12 42 C17.73886755 42.97928639 17.73886755 42.97928639 23 42 C23.23388439 44.85338956 23.41994081 47.20407827 23 50 C19.76852389 53.23147611 15.63529376 53.70226719 11.21875 54.0703125 C7.88494059 53.96466361 5.72223243 52.85908556 3 51 C0.16285312 46.74427968 -0.12575087 43.63515583 -0.09765625 38.578125 C-0.09443359 37.55332031 -0.09121094 36.52851563 -0.08789062 35.47265625 C-0.07951172 34.40917969 -0.07113281 33.34570312 -0.0625 32.25 C-0.05798828 31.17105469 -0.05347656 30.09210938 -0.04882812 28.98046875 C-0.03705727 26.32025617 -0.02061399 23.66015635 0 21 C-1.65 21 -3.3 21 -5 21 C-5 18.03 -5 15.06 -5 12 C-3.35 12 -1.7 12 0 12 C0 8.04 0 4.08 0 0 Z " fill="#142F4C" transform="translate(226,327)"/>
<path d="M0 0 C1.09092453 0.00652588 1.09092453 0.00652588 2.20388794 0.01318359 C4.60333764 0.03292831 7.00116341 0.08199929 9.40014648 0.13256836 C11.06874378 0.15486246 12.73735979 0.17579365 14.4059906 0.19541931 C17.90071888 0.24097409 21.39483802 0.30060846 24.88916016 0.37060547 C29.37040434 0.45958692 33.8513859 0.51736462 38.33323765 0.56511784 C41.77777223 0.60460089 45.22195577 0.65865809 48.66621208 0.71734428 C50.31878543 0.74410555 51.97143045 0.7667628 53.6241169 0.78526497 C55.93224528 0.81367333 58.23919416 0.86120971 60.546875 0.9140625 C61.86051529 0.93723038 63.17415558 0.96039825 64.52760315 0.98426819 C67.70874023 1.40991211 67.70874023 1.40991211 69.59385681 2.75340271 C71.50966395 5.59993578 71.84898669 8.20958077 71.96166992 11.54248047 C71.99129822 12.37021469 72.02092651 13.19794891 72.05145264 14.05076599 C72.07757629 14.94143265 72.10369995 15.8320993 72.13061523 16.74975586 C72.15851135 17.66825821 72.18640747 18.58676056 72.21514893 19.53309631 C72.27152485 21.47560141 72.32514478 23.41818816 72.3762207 25.36083984 C72.45833955 28.3329103 72.56187543 31.30376846 72.66577148 34.27514648 C72.71788337 36.16248 72.76870751 38.04984961 72.81811523 39.93725586 C72.85233582 40.82589828 72.8865564 41.71454071 72.92181396 42.63011169 C73.04871043 48.82509948 73.04871043 48.82509948 71.2019043 52.00195312 C70.70916016 52.46657959 70.21641602 52.93120605 69.70874023 53.40991211 C68.22374023 52.91491211 68.22374023 52.91491211 66.70874023 52.40991211 C67.36874023 52.07991211 68.02874023 51.74991211 68.70874023 51.40991211 C68.73401026 44.87712425 68.75157315 38.3443489 68.76367188 31.81152344 C68.7687134 29.58723479 68.77554646 27.36294948 68.78417969 25.13867188 C68.79625322 21.94912902 68.80197019 18.75962982 68.80639648 15.57006836 C68.81155777 14.5690358 68.81671906 13.56800323 68.82203674 12.53663635 C68.82215004 11.15531776 68.82215004 11.15531776 68.82226562 9.74609375 C68.82448624 8.9311293 68.82670685 8.11616486 68.82899475 7.27650452 C68.91402269 5.39513355 68.91402269 5.39513355 67.70874023 4.40991211 C65.36620242 4.31498489 63.05327919 4.2843142 60.71044922 4.29638672 C59.9787854 4.29624069 59.24712158 4.29609467 58.49328613 4.29594421 C56.0637724 4.29664344 53.6343344 4.30443626 51.20483398 4.31225586 C49.5247451 4.31412 47.84465567 4.31554392 46.16456604 4.31654358 C41.7340038 4.32036904 37.30347414 4.33019955 32.8729248 4.34124756 C28.35531047 4.35146108 23.8376909 4.35604107 19.32006836 4.36108398 C10.44961131 4.3718218 1.57917848 4.38889855 -7.29125977 4.40991211 C-8.88357077 7.59453413 -8.42055834 11.03501744 -8.40478516 14.53149414 C-8.40493118 15.37059326 -8.40507721 16.20969238 -8.40522766 17.07421875 C-8.40452945 19.85541342 -8.39674132 22.6365416 -8.38891602 25.41772461 C-8.38705151 27.34300703 -8.38562776 29.26828993 -8.3846283 31.193573 C-8.38080568 36.26692001 -8.37097755 41.3402385 -8.35992432 46.41357422 C-8.34970472 51.58813084 -8.3451295 56.76269206 -8.34008789 61.93725586 C-8.32935507 72.09482049 -8.31228169 82.25236393 -8.29125977 92.40991211 C-3.34125977 92.40991211 1.60874023 92.40991211 6.70874023 92.40991211 C7.36874023 90.75991211 8.02874023 89.10991211 8.70874023 87.40991211 C10.40640043 85.23656524 12.0881551 83.23376486 13.95874023 81.22241211 C14.48234131 80.65723877 15.00594238 80.09206543 15.54541016 79.50976562 C23.08546256 71.63691703 32.13091337 65.55464006 41.70874023 60.40991211 C42.36874023 60.40991211 43.02874023 60.40991211 43.70874023 60.40991211 C43.70874023 61.06991211 43.70874023 61.72991211 43.70874023 62.40991211 C43.0190918 62.76182617 42.32944336 63.11374023 41.61889648 63.47631836 C35.09035417 66.90626583 29.36757896 70.69421317 23.70874023 75.40991211 C23.06936523 75.91522461 22.42999023 76.42053711 21.77124023 76.94116211 C16.55523578 81.16792434 13.04084637 85.96771752 9.83374023 91.84741211 C7.73888277 94.40627709 6.50241223 94.43533748 3.12670898 94.85131836 C-0.72798204 94.97070322 -4.46121618 94.88130209 -8.29125977 94.40991211 C-12.19451399 90.50665788 -11.44983757 85.54867418 -11.46826172 80.30834961 C-11.47483292 79.49489075 -11.48140411 78.68143188 -11.48817444 77.84332275 C-11.50785241 75.15718489 -11.51955458 72.47110265 -11.52954102 69.78491211 C-11.53361654 68.86683777 -11.53769207 67.94876343 -11.5418911 67.00286865 C-11.56272322 62.14831773 -11.57704018 57.29379489 -11.58642578 52.43920898 C-11.5975152 47.4219101 -11.63195219 42.40505167 -11.67159748 37.38790894 C-11.69770627 33.53091594 -11.70611224 29.67402916 -11.70970726 25.81695557 C-11.71458407 23.96694954 -11.72622908 22.1169486 -11.74474525 20.26702881 C-11.76902657 17.68148446 -11.76819277 15.09709744 -11.76123047 12.51147461 C-11.77404053 11.74667786 -11.78685059 10.9818811 -11.80004883 10.19390869 C-11.76753933 6.88619111 -11.5047321 4.74642931 -9.71759033 1.92918396 C-6.35071091 -0.17902224 -3.96115066 -0.05303507 0 0 Z " fill="#295575" transform="translate(97.291259765625,193.590087890625)"/>
<path d="M0 0 C3.63 0 7.26 0 11 0 C11 6.6 11 13.2 11 20 C12.65 19.01 14.3 18.02 16 17 C19.8125 16.8125 19.8125 16.8125 23 17 C20.64971772 18.17514114 18.29739289 19.3441341 15.9375 20.5 C12.92220735 21.96835739 12.92220735 21.96835739 10 24 C9 23 9 23 8.88647461 20.86694336 C8.89171143 19.95050049 8.89694824 19.03405762 8.90234375 18.08984375 C8.90556641 17.10048828 8.90878906 16.11113281 8.91210938 15.09179688 C8.92048828 14.05087891 8.92886719 13.00996094 8.9375 11.9375 C8.94201172 10.89271484 8.94652344 9.84792969 8.95117188 8.77148438 C8.96300087 6.1809334 8.97948311 3.59049441 9 1 C6.69 1 4.38 1 2 1 C2 19.48 2 37.96 2 57 C4.31 57 6.62 57 9 57 C8.97643433 55.90328979 8.97643433 55.90328979 8.95239258 54.78442383 C8.88989649 51.4605284 8.85096248 48.1367568 8.8125 44.8125 C8.77479492 43.08676758 8.77479492 43.08676758 8.73632812 41.32617188 C8.72666016 40.21435547 8.71699219 39.10253906 8.70703125 37.95703125 C8.68346558 36.42526245 8.68346558 36.42526245 8.65942383 34.86254883 C9.05795066 31.51292369 10.00170773 29.69683235 12 27 C15.69486103 24.53675931 17.63293092 24.61008312 22 25 C23.71875 26.51953125 23.71875 26.51953125 25 28 C24.31292969 27.96519531 23.62585938 27.93039062 22.91796875 27.89453125 C21.56638672 27.85392578 21.56638672 27.85392578 20.1875 27.8125 C19.29417969 27.77769531 18.40085937 27.74289062 17.48046875 27.70703125 C15.01413672 27.80069297 15.01413672 27.80069297 13.37695312 29.13085938 C11.40355287 31.80964525 11.56581483 33.89628826 11.48828125 37.19921875 C11.45283203 38.40771484 11.41738281 39.61621094 11.38085938 40.86132812 C11.34702148 42.7552832 11.34702148 42.7552832 11.3125 44.6875 C11.27833984 45.96173828 11.24417969 47.23597656 11.20898438 48.54882812 C11.12639216 51.69913103 11.05727665 54.84915157 11 58 C7.37 58 3.74 58 0 58 C-0.167903 50.70440546 -0.32843257 43.40869962 -0.48217773 36.11279297 C-0.53549602 33.63162894 -0.5908171 31.1505071 -0.64819336 28.66943359 C-0.73038834 25.10002741 -0.8053431 21.53053074 -0.87890625 17.9609375 C-0.90594131 16.85446869 -0.93297638 15.74799988 -0.96083069 14.60800171 C-1.05733014 9.61106623 -1.10626624 4.90928922 0 0 Z " fill="#0F2038" transform="translate(331,321)"/>
<path d="M0 0 C1.97165382 0.029729 1.97165382 0.029729 3.98313904 0.06005859 C5.07406357 0.06636543 5.07406357 0.06636543 6.18702698 0.07279968 C8.58680089 0.09324273 10.98415862 0.1500834 13.38328552 0.20849609 C15.0518754 0.23265615 16.72049232 0.25501038 18.38912964 0.27563477 C21.8839983 0.32422849 25.37798269 0.38999834 28.87229919 0.46875 C33.35351934 0.56903176 37.83437482 0.63390723 42.31637669 0.68688965 C45.76093566 0.73025616 49.20510645 0.78864861 52.64935112 0.85198975 C54.30192239 0.88126734 55.95456608 0.90671456 57.60725594 0.92828369 C59.91542753 0.96139546 62.22235027 1.01381588 64.53001404 1.07177734 C65.84365433 1.09796143 67.15729462 1.12414551 68.51074219 1.15112305 C71.69187927 1.58349609 71.69187927 1.58349609 73.57699585 2.92797852 C75.49343961 5.77375259 75.83213936 8.38356819 75.94480896 11.71606445 C75.97443726 12.54379868 76.00406555 13.3715329 76.03459167 14.22434998 C76.06071533 15.11501663 76.08683899 16.00568329 76.11375427 16.92333984 C76.14165039 17.84184219 76.16954651 18.76034454 76.19828796 19.7066803 C76.25466388 21.6491854 76.30828382 23.59177215 76.35935974 25.53442383 C76.44147858 28.50649428 76.54501446 31.47735245 76.64891052 34.44873047 C76.70102241 36.33606399 76.75184654 38.2234336 76.80125427 40.11083984 C76.83547485 40.99948227 76.86969543 41.88812469 76.904953 42.80369568 C77.03184947 48.99868346 77.03184947 48.99868346 75.18504333 52.17553711 C74.69229919 52.64016357 74.19955505 53.10479004 73.69187927 53.58349609 C72.20687927 53.08849609 72.20687927 53.08849609 70.69187927 52.58349609 C71.35187927 52.25349609 72.01187927 51.92349609 72.69187927 51.58349609 C72.71714929 45.05070823 72.73471219 38.51793288 72.74681091 31.98510742 C72.75185244 29.76081878 72.7586855 27.53653346 72.76731873 25.31225586 C72.77939226 22.12271301 72.78510923 18.9332138 72.78953552 15.74365234 C72.79469681 14.74261978 72.79985809 13.74158722 72.80517578 12.71022034 C72.80528908 11.32890175 72.80528908 11.32890175 72.80540466 9.91967773 C72.80762527 9.10471329 72.80984589 8.28974884 72.81213379 7.4500885 C72.89716173 5.56871753 72.89716173 5.56871753 71.69187927 4.58349609 C69.34934146 4.48856887 67.03641823 4.45789818 64.69358826 4.4699707 C63.96192444 4.46982468 63.23026062 4.46967865 62.47642517 4.4695282 C60.04691144 4.47022743 57.61747344 4.47802025 55.18797302 4.48583984 C53.50788413 4.48770399 51.8277947 4.48912791 50.14770508 4.49012756 C45.71714284 4.49395302 41.28661318 4.50378354 36.85606384 4.51483154 C32.33844951 4.52504507 27.82082994 4.52962506 23.3032074 4.53466797 C14.43275035 4.54540578 5.56231751 4.56248253 -3.30812073 4.58349609 C-3.63812073 5.24349609 -3.96812073 5.90349609 -4.30812073 6.58349609 C-5.29812073 6.25349609 -6.28812073 5.92349609 -7.30812073 5.58349609 C-5.12614358 2.09740347 -4.13743347 0.72977272 0 0 Z " fill="#2F5F82" transform="translate(93.30812072753906,193.41650390625)"/>
<path d="M0 0 C3.39581516 -0.0291544 6.79159786 -0.04685068 10.1875 -0.0625 C11.14720703 -0.07087891 12.10691406 -0.07925781 13.09570312 -0.08789062 C14.02705078 -0.09111328 14.95839844 -0.09433594 15.91796875 -0.09765625 C17.19837036 -0.10551147 17.19837036 -0.10551147 18.50463867 -0.11352539 C21.09246747 0.00420677 23.47661953 0.42892956 26 1 C26 1.66 26 2.32 26 3 C18.08 2.67 10.16 2.34 2 2 C2 19.82 2 37.64 2 56 C9.59 55.67 17.18 55.34 25 55 C21.19840121 56.90079939 20.01795859 57.24412145 16.015625 57.1953125 C15.08105469 57.18886719 14.14648438 57.18242187 13.18359375 57.17578125 C11.73146484 57.15064453 11.73146484 57.15064453 10.25 57.125 C9.26644531 57.11597656 8.28289062 57.10695313 7.26953125 57.09765625 C4.84610593 57.07412785 2.42317778 57.04125368 0 57 C-1.08434404 50.8553838 -1.1521573 44.85517484 -1.125 38.625 C-1.12306641 37.54677979 -1.12113281 36.46855957 -1.11914062 35.35766602 C-1.0577368 23.56045519 -0.56978731 11.78217108 0 0 Z " fill="#091229" transform="translate(374,322)"/>
<path d="M0 0 C4.16676032 0.24510355 6.47707269 0.59327876 9.8125 3.1875 C13.65216234 8.12420873 14.25836921 12.56755117 13.9765625 18.7109375 C13.925 19.95488281 13.8734375 21.19882812 13.8203125 22.48046875 C13.75585938 23.76566406 13.69140625 25.05085938 13.625 26.375 C13.53992188 28.33759766 13.53992188 28.33759766 13.453125 30.33984375 C13.31207513 33.56048242 13.16069958 36.78029186 13 40 C10.67809021 40.40532761 8.34204652 40.73471965 6 41 C4.0625 39.5625 4.0625 39.5625 3 38 C2.21625 38.495 1.4325 38.99 0.625 39.5 C-4.06086014 41.43897661 -7.99258281 41.7409349 -13 41 C-16.85350036 39.038218 -20.04156444 36.91687112 -22 33 C-22.23535862 30.28030038 -22.13700646 27.74012924 -22 25 C-21.34 25 -20.68 25 -20 25 C-19.90203125 25.68707031 -19.8040625 26.37414062 -19.703125 27.08203125 C-19.47882813 28.43361328 -19.47882813 28.43361328 -19.25 29.8125 C-19.11078125 30.70582031 -18.9715625 31.59914063 -18.828125 32.51953125 C-17.80837012 35.57398572 -16.76747623 36.42073367 -14 38 C-7.60631848 39.49185902 -3.91921554 38.80383894 2 36 C2.33 35.34 2.66 34.68 3 34 C3.66 34 4.32 34 5 34 C5 35.65 5 37.3 5 39 C7.31 39 9.62 39 12 39 C11.91871319 34.64509274 11.8059014 30.29154381 11.6875 25.9375 C11.65366211 24.09381836 11.65366211 24.09381836 11.61914062 22.21289062 C11.35670489 13.19863593 11.35670489 13.19863593 8 5 C5.59141286 3.1375562 5.59141286 3.1375562 3 2 C2.01 1.34 1.02 0.68 0 0 Z " fill="#081931" transform="translate(274,339)"/>
<path d="M0 0 C0 2.97 0 5.94 0 9 C-4 10 -4 10 -11 9 C-10.67 15.93 -10.34 22.86 -10 30 C-7.36 30.66 -4.72 31.32 -2 32 C-2 32.33 -2 32.66 -2 33 C-4.64 33 -7.28 33 -10 33 C-10.66 31.68 -11.32 30.36 -12 29 C-12.66 29 -13.32 29 -14 29 C-14.02888146 25.68751813 -14.04675799 22.37506833 -14.0625 19.0625 C-14.07087891 18.11697266 -14.07925781 17.17144531 -14.08789062 16.19726562 C-14.09111328 15.29814453 -14.09433594 14.39902344 -14.09765625 13.47265625 C-14.10289307 12.64000244 -14.10812988 11.80734863 -14.11352539 10.94946289 C-14 9 -14 9 -13 8 C-11.14712498 7.92773498 -9.29166122 7.9161878 -7.4375 7.9375 C-6.42558594 7.94652344 -5.41367188 7.95554687 -4.37109375 7.96484375 C-3.19740234 7.98224609 -3.19740234 7.98224609 -2 8 C-2 6.02 -2 4.04 -2 2 C-4.97 2 -7.94 2 -11 2 C-11 1.34 -11 0.68 -11 0 C-6.94952424 -1.35015859 -4.2079832 -0.62084998 0 0 Z " fill="#0C1E3A" transform="translate(248,339)"/>
<path d="M0 0 C0.33 0 0.66 0 1 0 C1.73829192 9.18605526 -4.10097386 18.51385641 -9.67578125 25.546875 C-16.7031063 33.75851279 -25.16207544 39.88233492 -34 46 C-34.495 46.495 -34.495 46.495 -35 47 C-36.99958364 47.04080783 -39.00045254 47.04254356 -41 47 C-37.98937217 44.61421945 -34.87930423 42.81683023 -31.5 41 C-20.01514145 34.32503947 -9.14458816 24.72493006 -4.9453125 11.73828125 C-4 9 -4 9 -2 8 C-1.31527335 6.11235097 -1.31527335 6.11235097 -0.875 3.9375 C-0.70742187 3.20402344 -0.53984375 2.47054688 -0.3671875 1.71484375 C-0.18542969 0.86599609 -0.18542969 0.86599609 0 0 Z " fill="#0D1317" transform="translate(164,323)"/>
<path d="M0 0 C5.19822557 0.08238075 8.27652008 0.67309008 12 4.5 C13.7487917 7.18564439 14.38958609 9.03387831 14.75 12.1875 C14.09 12.1875 13.43 12.1875 12.75 12.1875 C12.09 13.5075 11.43 14.8275 10.75 16.1875 C9.1084951 12.9044902 10.23111376 9.76204967 10.75 6.1875 C7.67307254 3.5059721 5.55265337 2.76662193 1.5 2.5 C-0.0675 2.396875 -1.635 2.29375 -3.25 2.1875 C-3.25 6.8075 -3.25 11.4275 -3.25 16.1875 C0.71 16.1875 4.67 16.1875 8.75 16.1875 C6.75 18.1875 6.75 18.1875 4.18359375 18.41796875 C3.19488281 18.40378906 2.20617187 18.38960938 1.1875 18.375 C0.19621094 18.36855469 -0.79507812 18.36210937 -1.81640625 18.35546875 C-4.25 18.1875 -4.25 18.1875 -5.25 17.1875 C-5.34981214 14.5101862 -5.38879875 11.86445825 -5.375 9.1875 C-5.37886719 8.43726563 -5.38273437 7.68703125 -5.38671875 6.9140625 C-5.3743188 0.04448939 -5.3743188 0.04448939 0 0 Z " fill="#0F203A" transform="translate(388.25,329.8125)"/>
<path d="M0 0 C-0.99 0.33 -1.98 0.66 -3 1 C-3.33 1.66 -3.66 2.32 -4 3 C-4.928125 3.4021875 -4.928125 3.4021875 -5.875 3.8125 C-8.64126132 5.35835192 -9.54655436 7.23845328 -11 10 C-6.180684 9.66973196 -6.180684 9.66973196 -2.0625 7.4375 C0.69693307 5.51425877 2.78591867 5.51040323 6.09375 5.65234375 C8 6 8 6 10.5 7.625 C12.37956836 10.60098323 12.31424507 12.54330418 12 16 C10.45428722 13.68143083 9.20381448 11.49361571 8 9 C6.54257537 8.91903197 5.08387193 8.86082226 3.625 8.8125 C2.40683594 8.76029297 2.40683594 8.76029297 1.1640625 8.70703125 C0.44992187 8.80371094 -0.26421875 8.90039062 -1 9 C-1.99 10.485 -1.99 10.485 -3 12 C-5.3828125 12.29296875 -5.3828125 12.29296875 -8.125 12.1875 C-9.03507812 12.16042969 -9.94515625 12.13335937 -10.8828125 12.10546875 C-11.58148438 12.07066406 -12.28015625 12.03585937 -13 12 C-12.92547376 8.86989791 -12.59006466 6.70616903 -10.55078125 4.265625 C-7.17373333 1.18892191 -4.79281696 -0.87142127 0 0 Z " fill="#0A172E" transform="translate(266,339)"/>
<path d="M0 0 C0.66 0 1.32 0 2 0 C2 3.63 2 7.26 2 11 C2.66 11.33 3.32 11.66 4 12 C3.34 12 2.68 12 2 12 C2.08378906 12.79664063 2.16757812 13.59328125 2.25390625 14.4140625 C3.26537786 24.93848858 3.26537786 24.93848858 2 30 C-0.97 30 -3.94 30 -7 30 C-7 28.35 -7 26.7 -7 25 C-6.67 26.32 -6.34 27.64 -6 29 C-4.02 29 -2.04 29 0 29 C0 19.43 0 9.86 0 0 Z " fill="#0A172F" transform="translate(450,349)"/>
<path d="M0 0 C0.495 0.33 0.99 0.66 1.5 1 C1.5 2.32 1.5 3.64 1.5 5 C0.84 5 0.18 5 -0.5 5 C-0.768125 5.61875 -1.03625 6.2375 -1.3125 6.875 C-2.5 9 -2.5 9 -5.5 11 C-5.21125 10.46375 -4.9225 9.9275 -4.625 9.375 C-3.33288192 6.64719516 -2.41441408 3.87387282 -1.5 1 C-3.10495567 1.11442461 -4.70898119 1.24194694 -6.3125 1.375 C-7.20582031 1.44460938 -8.09914063 1.51421875 -9.01953125 1.5859375 C-11.74398499 1.86645036 -11.74398499 1.86645036 -14.5 4 C-14.75030977 6.58380177 -14.75030977 6.58380177 -14.5 9 C-11.86 9.66 -9.22 10.32 -6.5 11 C-6.5 11.33 -6.5 11.66 -6.5 12 C-12.78388747 12.48337596 -12.78388747 12.48337596 -16 10.3125 C-17.5 8 -17.5 8 -17.4375 5.4375 C-16.4480987 2.86505662 -15.66907991 1.66852301 -13.5 0 C-8.97258828 -1.50913724 -4.43573202 -1.77429281 0 0 Z " fill="#061025" transform="translate(278.5,361)"/>
<path d="M0 0 C0.66 0.33 1.32 0.66 2 1 C2.35671933 4.83473284 2.29771416 6.55342875 0.125 9.8125 C-2.84786392 12.8728011 -3.54510163 12.97111756 -7.9375 13.25 C-10.50031874 13.20348786 -11.74172718 13.14527846 -14 11.875 C-15.42098605 9.21065116 -15.19767261 6.96508915 -15 4 C-14.67 4 -14.34 4 -14 4 C-13.34 5.98 -12.68 7.96 -12 10 C-9.10925567 10.82592695 -7.21752916 11.0444946 -4.25 10.4375 C-1.65848042 9.14094721 -1.65848042 9.14094721 -1.1875 5.875 C-1.0946875 4.451875 -1.0946875 4.451875 -1 3 C-4.96 3 -8.92 3 -13 3 C-9.17385544 -0.82614456 -5.07298902 -0.16104727 0 0 Z " fill="#07142B" transform="translate(441,360)"/>
<path d="M0 0 C0.66 0 1.32 0 2 0 C2.2475 0.78375 2.495 1.5675 2.75 2.375 C3.76908984 5.03842531 3.76908984 5.03842531 5.75 6.3125 C9.74312108 7.53262033 13.07005411 7.30998196 17 6 C17 5.34 17 4.68 17 4 C20.81756824 2.62567543 24.07255329 3.32024961 28 4 C26.68206814 9.66710699 24.51290803 11.66437233 20 15 C21.49836105 11.88801935 23.19933758 8.9465385 25 6 C20.3511762 5.68303474 18.60014862 6.18738389 15 9 C11.25636271 10.13936787 9.5071409 10.18893485 5.8125 8.8125 C3.08182515 7.05273176 1.58158616 5.81170872 0 3 C0 2.01 0 1.02 0 0 Z " fill="#081830" transform="translate(503,363)"/>
<path d="M0 0 C1.32 0.33 2.64 0.66 4 1 C2.576875 1.86625 2.576875 1.86625 1.125 2.75 C-2.49314147 5.21379845 -2.49314147 5.21379845 -4 9 C-3.98550649 12.57265048 -3.94437272 15.7601487 -1.7265625 18.671875 C0.32975094 20.25365457 1.90086326 20.68701687 4.4375 21.1875 C5.58025391 21.42533203 5.58025391 21.42533203 6.74609375 21.66796875 C9.27984331 22.09716053 9.27984331 22.09716053 13 22 C13 22.66 13 23.32 13 24 C3.29005236 24.62198953 3.29005236 24.62198953 -1.5 22.3125 C-4.12528634 19.88411014 -5.70907212 18.3412251 -7 15 C-7.10159572 8.70106515 -5.57251916 5.7776202 -1.27734375 1.25 C-0.85582031 0.8375 -0.43429687 0.425 0 0 Z " fill="#09162D" transform="translate(423,356)"/>
<path d="M0 0 C3.63 0 7.26 0 11 0 C10.67 4.29 10.34 8.58 10 13 C9.67 13 9.34 13 9 13 C9 9.04 9 5.08 9 1 C6.69 1 4.38 1 2 1 C2 4.96 2 8.92 2 13 C0.02 13.99 0.02 13.99 -2 15 C-2.81171228 17.55519921 -2.81171228 17.55519921 -3 20 C-5 18 -5 18 -5.125 14.875 C-5.08375 13.92625 -5.0425 12.9775 -5 12 C-3.35 12 -1.7 12 0 12 C0 8.04 0 4.08 0 0 Z " fill="#0A1427" transform="translate(226,327)"/>
<path d="M0 0 C7.73736476 -0.70696734 12.90919602 -0.29574981 19.35546875 4.19921875 C21.37311975 6.40857056 21.66526889 8.06735584 22 11 C21.4225 10.21625 20.845 9.4325 20.25 8.625 C17.12819011 4.98288846 15.34938437 4.11727155 10.5390625 3.69921875 C9.24742187 3.69535156 7.95578125 3.69148438 6.625 3.6875 C5.33851563 3.67074219 4.05203125 3.65398437 2.7265625 3.63671875 C-1.19149454 4.01866771 -3.63001614 5.02287324 -7 7 C-6 4 -6 4 -3 2 C-2.01 2 -1.02 2 0 2 C0 1.34 0 0.68 0 0 Z " fill="#0C1C35" transform="translate(428,337)"/>
<path d="M0 0 C0.66 0 1.32 0 2 0 C2 6.6 2 13.2 2 20 C3.65 19.01 5.3 18.02 7 17 C10.8125 16.8125 10.8125 16.8125 14 17 C11.64971772 18.17514114 9.29739289 19.3441341 6.9375 20.5 C3.92220735 21.96835739 3.92220735 21.96835739 1 24 C0 23 0 23 -0.11352539 20.77514648 C-0.10828857 19.81680908 -0.10305176 18.85847168 -0.09765625 17.87109375 C-0.09443359 16.83662109 -0.09121094 15.80214844 -0.08789062 14.73632812 C-0.07951172 13.64771484 -0.07113281 12.55910156 -0.0625 11.4375 C-0.05798828 10.34501953 -0.05347656 9.25253906 -0.04882812 8.12695312 C-0.03699826 5.41791505 -0.02051543 2.70898401 0 0 Z " fill="#09152B" transform="translate(340,321)"/>
<path d="M0 0 C7.45188627 0.47313564 14.85888014 1.47813834 20.0625 7.3125 C21.64728542 11.85555153 21.27866976 15.65731841 20.3125 20.3125 C19 23 19 23 16.375 24.375 C15.59125 24.58125 14.8075 24.7875 14 25 C15.20381448 22.50638429 16.45428722 20.31856917 18 18 C18.42737035 15.85719641 18.42737035 15.85719641 18.4375 13.5625 C18.47746094 12.80066406 18.51742188 12.03882813 18.55859375 11.25390625 C17.70913664 7.82637651 15.92608163 6.87316547 13 5 C9.67604717 3.6819913 9.67604717 3.6819913 6.1875 2.75 C5.02605469 2.41484375 3.86460937 2.0796875 2.66796875 1.734375 C1.78753906 1.49203125 0.90710938 1.2496875 0 1 C0 0.67 0 0.34 0 0 Z " fill="#0A172E" transform="translate(469,353)"/>
<path d="M0 0 C2 2 2 2 2.125 4.625 C2.08375 5.40875 2.0425 6.1925 2 7 C-7.42869877 8.32368341 -16.55656618 7.71960516 -26 7 C-26.33 6.34 -26.66 5.68 -27 5 C-18.09 5 -9.18 5 0 5 C0 3.35 0 1.7 0 0 Z " fill="#0A2540" transform="translate(530,355)"/>
<path d="M0 0 C0.33 0.66 0.66 1.32 1 2 C0.34 2 -0.32 2 -1 2 C-1.66 3.65 -2.32 5.3 -3 7 C2.28 7 7.56 7 13 7 C11.68 5.35 10.36 3.7 9 2 C9.33 1.34 9.66 0.68 10 0 C12.75661088 2.48984209 14.60746455 4.20549066 15 8 C14 9 14 9 12.23413086 9.11352539 C11.48526611 9.10828857 10.73640137 9.10305176 9.96484375 9.09765625 C9.15595703 9.09443359 8.34707031 9.09121094 7.51367188 9.08789062 C6.66353516 9.07951172 5.81339844 9.07113281 4.9375 9.0625 C4.08349609 9.05798828 3.22949219 9.05347656 2.34960938 9.04882812 C0.23304337 9.03700373 -1.88348685 9.01906769 -4 9 C-4.33 8.01 -4.66 7.02 -5 6 C-2.66666667 1.33333333 -2.66666667 1.33333333 0 0 Z " fill="#09132A" transform="translate(508,346)"/>
<path d="M0 0 C2.86724686 0.57344937 3.8614515 0.8614515 6 3 C5.8125 5.5 5.8125 5.5 5 8 C1.32301233 10.45132511 -1.72531966 10.71525163 -6 10 C-8.625 8.0625 -8.625 8.0625 -11 6 C-14.18762109 5.20309162 -14.18762109 5.20309162 -17 5 C-17 5.66 -17 6.32 -17 7 C-17.66 7 -18.32 7 -19 7 C-19 6.01 -19 5.02 -19 4 C-17.20906809 3.91913853 -15.41710372 3.86087298 -13.625 3.8125 C-12.12839844 3.76029297 -12.12839844 3.76029297 -10.6015625 3.70703125 C-9.74304688 3.80371094 -8.88453125 3.90039062 -8 4 C-7.01 5.485 -7.01 5.485 -6 7 C-4.02252878 7.36297936 -4.02252878 7.36297936 -1.875 7.1875 C-0.59625 7.125625 0.6825 7.06375 2 7 C2.77242269 5.16299211 2.77242269 5.16299211 3 3 C1.64555699 1.22809091 1.64555699 1.22809091 0 0 Z " fill="#08172F" transform="translate(311,363)"/>
<path d="M0 0 C3.59951941 -0.1999733 6.00651705 -0.09543806 9 2 C11.64947851 5.5010966 12.14444191 7.68840896 12 12 C10.37581255 12.08090971 8.75048255 12.13914995 7.125 12.1875 C6.22007812 12.22230469 5.31515625 12.25710938 4.3828125 12.29296875 C3.20332031 12.14794922 3.20332031 12.14794922 2 12 C1.34 11.01 0.68 10.02 0 9 C-1.95385067 8.21011855 -1.95385067 8.21011855 -4.125 7.8125 C-6.043125 7.4103125 -6.043125 7.4103125 -8 7 C-8 6.67 -8 6.34 -8 6 C-2.98333756 5.71057717 -0.89001661 5.96092452 3 9 C6.65274469 9.72481084 6.65274469 9.72481084 10 10 C8.45705773 5.8309343 8.45705773 5.8309343 5.2421875 2.93359375 C3.52442366 2.21380202 1.76354319 1.5989392 0 1 C0 0.67 0 0.34 0 0 Z " fill="#09132B" transform="translate(313,339)"/>
<path d="M0 0 C0.33 0 0.66 0 1 0 C1.01981934 0.73637695 1.03963867 1.47275391 1.06005859 2.23144531 C1.15537828 5.57132056 1.26502996 8.91057639 1.375 12.25 C1.4059375 13.40886719 1.436875 14.56773437 1.46875 15.76171875 C1.50742188 16.87675781 1.54609375 17.99179687 1.5859375 19.140625 C1.6173584 20.16704102 1.6487793 21.19345703 1.68115234 22.25097656 C2.00201814 25.01739987 2.41278118 26.71891141 4 29 C7.05908413 29.81584568 7.05908413 29.81584568 10 30 C10 30.66 10 31.32 10 32 C11.32 32 12.64 32 14 32 C13.67 32.66 13.34 33.32 13 34 C8.3386221 34.32521241 5.75935554 33.81951666 2 31 C-0.39112209 27.41331687 -0.23381027 25.83603431 -0.1953125 21.58203125 C-0.18886719 20.32841797 -0.18242187 19.07480469 -0.17578125 17.78320312 C-0.15902344 16.47287109 -0.14226562 15.16253906 -0.125 13.8125 C-0.11496639 12.47722013 -0.1058412 11.14193311 -0.09765625 9.80664062 C-0.07405292 6.53757985 -0.04112594 3.26887972 0 0 Z " fill="#060E22" transform="translate(227,347)"/>
<path d="M0 0 C0.66 0.33 1.32 0.66 2 1 C1.773125 2.175625 1.54625 3.35125 1.3125 4.5625 C0.77541696 9.16839392 1.5038891 11.99109461 4 16 C8.4292611 19.67280303 13.69074849 21.89842128 19 24 C16.46369751 24.93504239 15.24602532 25.07794862 12.6328125 24.25 C7.02873882 21.45669225 1.97462795 18.71874968 -1 13 C-1.8536273 9.64171776 -2.29034058 6.45989195 -2 3 C-1.34 2.01 -0.68 1.02 0 0 Z " fill="#09152B" transform="translate(180,331)"/>
<path d="M0 0 C3.12720935 0.83392249 5.47685312 1.54435594 7.9375 3.6875 C9.52198075 7.13607576 8.98291287 9.39598614 8 13 C5.37079284 15.81700767 2.79211129 16.63003792 -1 17 C-3.8125 16.5625 -3.8125 16.5625 -6 16 C-6 15.67 -6 15.34 -6 15 C-2.04 14.34 1.92 13.68 6 13 C6 10.03 6 7.06 6 4 C4.02 3.34 2.04 2.68 0 2 C0 1.34 0 0.68 0 0 Z " fill="#08172E" transform="translate(200,356)"/>
<path d="M0 0 C4.18233304 0.24601959 6.50136834 0.62060634 9.875 3.1875 C12.19602849 6.25944948 12.73497804 8.20135193 13 12 C11.39667209 12.08121924 9.79215974 12.13929134 8.1875 12.1875 C7.29417969 12.22230469 6.40085937 12.25710938 5.48046875 12.29296875 C2.58352485 11.95081002 1.77444972 11.24606427 0 9 C0.33 8.34 0.66 7.68 1 7 C1.66 7.33 2.32 7.66 3 8 C3 8.66 3 9.32 3 10 C5.64 10 8.28 10 11 10 C8.03084172 4.6555151 5.77281088 2.99828069 0 1 C0 0.67 0 0.34 0 0 Z " fill="#0A152B" transform="translate(477,339)"/>
<path d="M0 0 C10.01226994 -0.39263804 10.01226994 -0.39263804 14 2 C17.0886933 5.17449034 18.49614177 7.59124045 19 12 C18.34 12 17.68 12 17 12 C16.34 13.32 15.68 14.64 15 16 C13.3584951 12.7169902 14.48111376 9.57454967 15 6 C11.91818462 3.30610543 9.87669651 2.62360058 5.8125 2.4375 C3.14453125 2.30859375 3.14453125 2.30859375 1 2 C0.67 1.34 0.34 0.68 0 0 Z " fill="#081832" transform="translate(384,330)"/>
<path d="M0 0 C2.375 3.125 2.375 3.125 4 6 C3.67 6.66 3.34 7.32 3 8 C1 6.1875 1 6.1875 -1 4 C-1 3.01 -1 2.02 -1 1 C-3.64 1 -6.28 1 -9 1 C-9 2.32 -9 3.64 -9 5 C-9.99 4.67 -10.98 4.34 -12 4 C-10.55263158 -0.70394737 -10.55263158 -0.70394737 -8.25 -1.9375 C-4.99517144 -2.0279119 -2.94550374 -1.41138721 0 0 Z " fill="#091325" transform="translate(189,363)"/>
<path d="M0 0 C7.89846631 0 14.27849627 3.6217865 20 9 C20.34375 11.765625 20.34375 11.765625 20 14 C19.51015625 13.26394531 19.0203125 12.52789062 18.515625 11.76953125 C15.32432736 8.25613059 12.00334116 6.66763321 7.75 4.6875 C7.00492188 4.32849609 6.25984375 3.96949219 5.4921875 3.59960938 C3.66674422 2.72199241 1.8340658 1.85945177 0 1 C0 0.67 0 0.34 0 0 Z " fill="#09152C" transform="translate(197,346)"/>
<path d="M0 0 C0.66 0.33 1.32 0.66 2 1 C1.67 1.99 1.34 2.98 1 4 C3.31 4 5.62 4 8 4 C8 3.34 8 2.68 8 2 C8.99 1.67 9.98 1.34 11 1 C10.34 2.65 9.68 4.3 9 6 C5.7 6 2.4 6 -1 6 C-1 1 -1 1 0 0 Z " fill="#0A1931" transform="translate(419,345)"/>
<path d="M0 0 C1.45823212 -0.0270043 2.91660675 -0.04639787 4.375 -0.0625 C5.18710937 -0.07410156 5.99921875 -0.08570313 6.8359375 -0.09765625 C9 0 9 0 11 1 C11 2.32 11 3.64 11 5 C10.34 5 9.68 5 9 5 C8.731875 5.61875 8.46375 6.2375 8.1875 6.875 C7 9 7 9 4 11 C4.28875 10.46375 4.5775 9.9275 4.875 9.375 C6.16711808 6.64719516 7.08558592 3.87387282 8 1 C5.36 1 2.72 1 0 1 C0 0.67 0 0.34 0 0 Z " fill="#0C1E38" transform="translate(269,361)"/>
<path d="M0 0 C0.33 0 0.66 0 1 0 C1 1.98 1 3.96 1 6 C-2.37817425 6.84454356 -4.67465243 7.10844919 -8 6 C-8 5.01 -8 4.02 -8 3 C-5.36 3 -2.72 3 0 3 C0 2.01 0 1.02 0 0 Z " fill="#142842" transform="translate(217,334)"/>
<path d="M0 0 C3.24976804 -0.37140206 4.73393244 -0.16223632 7.5625 1.5625 C10.50045712 4.50045712 12.08956051 7.32063505 14 11 C13.01 12.485 13.01 12.485 12 14 C11.8040625 13.39671875 11.608125 12.7934375 11.40625 12.171875 C9.65727492 7.49788986 8.35494703 4.68281992 3.75 2.4375 C2.51162512 1.92904316 1.26468147 1.43895498 0 1 C0 0.67 0 0.34 0 0 Z " fill="#08142D" transform="translate(517,339)"/>
<path d="M0 0 C-0.99 0 -1.98 0 -3 0 C-3 0.66 -3 1.32 -3 2 C-5.64 2 -8.28 2 -11 2 C-11 1.34 -11 0.68 -11 0 C-11.99 -0.33 -12.98 -0.66 -14 -1 C-12.41870971 -1.22331199 -10.83478911 -1.42804644 -9.25 -1.625 C-8.36828125 -1.74101562 -7.4865625 -1.85703125 -6.578125 -1.9765625 C-3.77140122 -2.00207817 -2.36615134 -1.44843844 0 0 Z " fill="#132843" transform="translate(277,339)"/>
<path d="M0 0 C0 0.66 0 1.32 0 2 C3.3 1.34 6.6 0.68 10 0 C10 0.66 10 1.32 10 2 C7.11584117 3.44207941 4.58278472 3.09394887 1.375 3.0625 C0.18648438 3.05347656 -1.00203125 3.04445313 -2.2265625 3.03515625 C-3.14179688 3.02355469 -4.05703125 3.01195312 -5 3 C-5 2.34 -5 1.68 -5 1 C-3 0 -3 0 0 0 Z " fill="#091933" transform="translate(472,377)"/>
<path d="M0 0 C-0.33 2.64 -0.66 5.28 -1 8 C-1.33 8 -1.66 8 -2 8 C-2 6.02 -2 4.04 -2 2 C-4.97 2 -7.94 2 -11 2 C-11 1.34 -11 0.68 -11 0 C-6.94952424 -1.35015859 -4.2079832 -0.62084998 0 0 Z " fill="#0A1A33" transform="translate(248,339)"/>
<path d="M0 0 C0.66 0 1.32 0 2 0 C1.01 4.95 0.02 9.9 -1 15 C-1.99 14.67 -2.98 14.34 -4 14 C-3.52372025 12.04096255 -3.04388577 10.08278903 -2.5625 8.125 C-2.29566406 7.03445312 -2.02882812 5.94390625 -1.75390625 4.8203125 C-1 2 -1 2 0 0 Z " fill="#0F171F" transform="translate(186,208)"/>
<path d="M0 0 C0 0.99 0 1.98 0 3 C-1.72290605 3.70304222 -3.45367466 4.38683491 -5.1875 5.0625 C-6.63189453 5.63677734 -6.63189453 5.63677734 -8.10546875 6.22265625 C-11.20934675 7.05622133 -12.94919117 6.88679818 -16 6 C-16 5.67 -16 5.34 -16 5 C-14.64455078 4.70996094 -14.64455078 4.70996094 -13.26171875 4.4140625 C-12.08222656 4.15367187 -10.90273437 3.89328125 -9.6875 3.625 C-8.51574219 3.36976563 -7.34398437 3.11453125 -6.13671875 2.8515625 C-2.87079555 2.14304469 -2.87079555 2.14304469 0 0 Z " fill="#07162F" transform="translate(211,374)"/>
<path d="M0 0 C2 2 2 2 2 7 C-2.95 6.67 -7.9 6.34 -13 6 C-13 5.67 -13 5.34 -13 5 C-8.71 5 -4.42 5 0 5 C0 3.35 0 1.7 0 0 Z " fill="#0A1C32" transform="translate(530,355)"/>
<path d="M0 0 C6.35051546 -0.36637589 6.35051546 -0.36637589 9.4375 1.375 C11 3 11 3 11 5 C10.34 5 9.68 5 9 5 C9 4.34 9 3.68 9 3 C7.700625 2.87625 6.40125 2.7525 5.0625 2.625 C2.84765625 2.4140625 2.84765625 2.4140625 1 2 C0.67 1.34 0.34 0.68 0 0 Z " fill="#0A172F" transform="translate(431,345)"/>
<path d="M0 0 C3 1 3 1 3 1 Z " fill="#112139" transform="translate(438,379)"/>
<path d="M0 0 C2 1 2 1 2 1 Z " fill="#18304C" transform="translate(257,381)"/>
<path d="M0 0 C2 1 2 1 2 1 Z " fill="#1A314C" transform="translate(223,373)"/>
<path d="" fill="#0E182D" transform="translate(0,0)"/>
<path d="M0 0 C2 1 2 1 2 1 Z " fill="#12233A" transform="translate(414,357)"/>
<path d="" fill="#0B1C34" transform="translate(0,0)"/>
<path d="" fill="#1C334E" transform="translate(0,0)"/>
<path d="" fill="#11223B" transform="translate(0,0)"/>
<path d="M0 0 C2 1 2 1 2 1 Z " fill="#23313C" transform="translate(98,325)"/>
<path d="M0 0 C2 1 2 1 2 1 Z " fill="#223A55" transform="translate(375,320)"/>
<path d="M0 0 C2 1 2 1 2 1 Z " fill="#34566F" transform="translate(151,255)"/>
<path d="" fill="#202A32" transform="translate(0,0)"/>
<path d="M0 0 C2 1 2 1 2 1 Z " fill="#417397" transform="translate(83,195)"/>
<path d="" fill="#1A314C" transform="translate(0,0)"/>
<path d="" fill="#1A3049" transform="translate(0,0)"/>
<path d="" fill="#1A314C" transform="translate(0,0)"/>
<path d="" fill="#1A314C" transform="translate(0,0)"/>
<path d="" fill="#192F49" transform="translate(0,0)"/>
<path d="" fill="#182F49" transform="translate(0,0)"/>
<path d="" fill="#1A324D" transform="translate(0,0)"/>
<path d="" fill="#1A304A" transform="translate(0,0)"/>
<path d="" fill="#1A3049" transform="translate(0,0)"/>
<path d="" fill="#193049" transform="translate(0,0)"/>
<path d="" fill="#1C2E41" transform="translate(0,0)"/>
<path d="" fill="#1B2C3E" transform="translate(0,0)"/>
<path d="" fill="#1A314C" transform="translate(0,0)"/>
<path d="" fill="#19324F" transform="translate(0,0)"/>
<path d="" fill="#0B1E3B" transform="translate(0,0)"/>
<path d="" fill="#1A324D" transform="translate(0,0)"/>
<path d="" fill="#1A324D" transform="translate(0,0)"/>
<path d="" fill="#1A324D" transform="translate(0,0)"/>
<path d="" fill="#203854" transform="translate(0,0)"/>
<path d="" fill="#1E3752" transform="translate(0,0)"/>
<path d="" fill="#1B314A" transform="translate(0,0)"/>
<path d="" fill="#041832" transform="translate(0,0)"/>
<path d="" fill="#23374C" transform="translate(0,0)"/>
<path d="" fill="#112844" transform="translate(0,0)"/>
<path d="" fill="#192F49" transform="translate(0,0)"/>
<path d="" fill="#1D3652" transform="translate(0,0)"/>
<path d="" fill="#1B334E" transform="translate(0,0)"/>
<path d="" fill="#192F49" transform="translate(0,0)"/>
<path d="" fill="#071328" transform="translate(0,0)"/>
<path d="" fill="#0A1930" transform="translate(0,0)"/>
<path d="" fill="#192F49" transform="translate(0,0)"/>
<path d="" fill="#1A314C" transform="translate(0,0)"/>
<path d="" fill="#0F1D35" transform="translate(0,0)"/>
<path d="" fill="#0F2237" transform="translate(0,0)"/>
<path d="" fill="#0A192E" transform="translate(0,0)"/>
<path d="" fill="#16273C" transform="translate(0,0)"/>
<path d="" fill="#152841" transform="translate(0,0)"/>
<path d="" fill="#192E49" transform="translate(0,0)"/>
<path d="" fill="#1B334E" transform="translate(0,0)"/>
<path d="" fill="#1B324B" transform="translate(0,0)"/>
<path d="" fill="#0A1425" transform="translate(0,0)"/>
<path d="" fill="#122136" transform="translate(0,0)"/>
<path d="" fill="#13253D" transform="translate(0,0)"/>
<path d="" fill="#0C1C36" transform="translate(0,0)"/>
<path d="" fill="#122239" transform="translate(0,0)"/>
<path d="" fill="#1A324D" transform="translate(0,0)"/>
<path d="" fill="#14233C" transform="translate(0,0)"/>
<path d="" fill="#1A324D" transform="translate(0,0)"/>
<path d="" fill="#19304A" transform="translate(0,0)"/>
<path d="" fill="#223853" transform="translate(0,0)"/>
<path d="" fill="#112038" transform="translate(0,0)"/>
<path d="" fill="#0D1B35" transform="translate(0,0)"/>
<path d="" fill="#081226" transform="translate(0,0)"/>
<path d="" fill="#1A314C" transform="translate(0,0)"/>
<path d="" fill="#0D182F" transform="translate(0,0)"/>
<path d="" fill="#12171C" transform="translate(0,0)"/>
<path d="" fill="#20282E" transform="translate(0,0)"/>
<path d="" fill="#0D131B" transform="translate(0,0)"/>
<path d="" fill="#1D2D3D" transform="translate(0,0)"/>
<path d="" fill="#1C334F" transform="translate(0,0)"/>
<path d="" fill="#202A32" transform="translate(0,0)"/>
<path d="" fill="#0E1F38" transform="translate(0,0)"/>
<path d="" fill="#141A1F" transform="translate(0,0)"/>
<path d="" fill="#09142A" transform="translate(0,0)"/>
<path d="" fill="#101D35" transform="translate(0,0)"/>
<path d="" fill="#1E2830" transform="translate(0,0)"/>
<path d="" fill="#1E3651" transform="translate(0,0)"/>
<path d="" fill="#071630" transform="translate(0,0)"/>
<path d="" fill="#0A182C" transform="translate(0,0)"/>
<path d="" fill="#1F3753" transform="translate(0,0)"/>
<path d="" fill="#1B334F" transform="translate(0,0)"/>
<path d="" fill="#1A324D" transform="translate(0,0)"/>
<path d="" fill="#030E28" transform="translate(0,0)"/>
<path d="" fill="#0D1B30" transform="translate(0,0)"/>
<path d="" fill="#223344" transform="translate(0,0)"/>
<path d="" fill="#213A55" transform="translate(0,0)"/>
<path d="" fill="#0D1E37" transform="translate(0,0)"/>
<path d="" fill="#1F2C37" transform="translate(0,0)"/>
<path d="" fill="#1B324D" transform="translate(0,0)"/>
<path d="" fill="#1B334E" transform="translate(0,0)"/>
<path d="" fill="#03112C" transform="translate(0,0)"/>
<path d="" fill="#0E1D33" transform="translate(0,0)"/>
<path d="" fill="#051D3A" transform="translate(0,0)"/>
<path d="" fill="#0C1014" transform="translate(0,0)"/>
<path d="" fill="#091832" transform="translate(0,0)"/>
<path d="" fill="#1A324E" transform="translate(0,0)"/>
<path d="" fill="#152D4B" transform="translate(0,0)"/>
<path d="" fill="#1D3551" transform="translate(0,0)"/>
<path d="" fill="#0C1721" transform="translate(0,0)"/>
<path d="" fill="#1A324D" transform="translate(0,0)"/>
<path d="" fill="#1A314C" transform="translate(0,0)"/>
<path d="" fill="#1A3049" transform="translate(0,0)"/>
<path d="" fill="#0D192E" transform="translate(0,0)"/>
<path d="" fill="#08101C" transform="translate(0,0)"/>
<path d="" fill="#1A314B" transform="translate(0,0)"/>
<path d="" fill="#111F34" transform="translate(0,0)"/>
<path d="" fill="#081D38" transform="translate(0,0)"/>
<path d="" fill="#1C344F" transform="translate(0,0)"/>
<path d="" fill="#223B57" transform="translate(0,0)"/>
<path d="" fill="#171F24" transform="translate(0,0)"/>
<path d="" fill="#112641" transform="translate(0,0)"/>
<path d="" fill="#0E1C34" transform="translate(0,0)"/>
<path d="" fill="#0C1C34" transform="translate(0,0)"/>
<path d="" fill="#0A1429" transform="translate(0,0)"/>
<path d="" fill="#182F49" transform="translate(0,0)"/>
<path d="" fill="#1A3049" transform="translate(0,0)"/>
<path d="" fill="#1D2A35" transform="translate(0,0)"/>
<path d="" fill="#233C59" transform="translate(0,0)"/>
<path d="" fill="#0D1A32" transform="translate(0,0)"/>
<path d="" fill="#192F49" transform="translate(0,0)"/>
<path d="" fill="#192F47" transform="translate(0,0)"/>
<path d="" fill="#1D3651" transform="translate(0,0)"/>
<path d="" fill="#112139" transform="translate(0,0)"/>
<path d="" fill="#1C2B3B" transform="translate(0,0)"/>
<path d="" fill="#0A1224" transform="translate(0,0)"/>
<path d="" fill="#1C324A" transform="translate(0,0)"/>
<path d="" fill="#0C1C36" transform="translate(0,0)"/>
<path d="" fill="#1D3652" transform="translate(0,0)"/>
<path d="" fill="#050B25" transform="translate(0,0)"/>
<path d="" fill="#0D2542" transform="translate(0,0)"/>
<path d="" fill="#06172E" transform="translate(0,0)"/>
<path d="" fill="#081931" transform="translate(0,0)"/>
<path d="" fill="#122137" transform="translate(0,0)"/>
<path d="" fill="#192F49" transform="translate(0,0)"/>
<path d="" fill="#0D233E" transform="translate(0,0)"/>
<path d="" fill="#0D213B" transform="translate(0,0)"/>
<path d="" fill="#1E3753" transform="translate(0,0)"/>
<path d="" fill="#1A314C" transform="translate(0,0)"/>
<path d="" fill="#0C1B38" transform="translate(0,0)"/>
<path d="" fill="#1B324C" transform="translate(0,0)"/>
<path d="" fill="#112743" transform="translate(0,0)"/>
<path d="" fill="#1C2A37" transform="translate(0,0)"/>
<path d="" fill="#1D2A35" transform="translate(0,0)"/>
<path d="" fill="#0A131A" transform="translate(0,0)"/>
<path d="" fill="#07152A" transform="translate(0,0)"/>
<path d="" fill="#0F213A" transform="translate(0,0)"/>
<path d="" fill="#0E1A33" transform="translate(0,0)"/>
<path d="" fill="#09122A" transform="translate(0,0)"/>
<path d="" fill="#1C3551" transform="translate(0,0)"/>
<path d="" fill="#040B24" transform="translate(0,0)"/>
<path d="" fill="#07102A" transform="translate(0,0)"/>
<path d="" fill="#1A324D" transform="translate(0,0)"/>
<path d="" fill="#0F1E36" transform="translate(0,0)"/>
<path d="" fill="#0B1E37" transform="translate(0,0)"/>
<path d="" fill="#111D32" transform="translate(0,0)"/>
<path d="" fill="#161F25" transform="translate(0,0)"/>
<path d="" fill="#0A1D31" transform="translate(0,0)"/>
<path d="" fill="#0C1833" transform="translate(0,0)"/>
<path d="" fill="#1E3754" transform="translate(0,0)"/>
<path d="" fill="#1C2E42" transform="translate(0,0)"/>
<path d="" fill="#1A314C" transform="translate(0,0)"/>
<path d="" fill="#1B334E" transform="translate(0,0)"/>
<path d="" fill="#0C1D36" transform="translate(0,0)"/>
<path d="" fill="#1A314C" transform="translate(0,0)"/>
<path d="" fill="#1A324E" transform="translate(0,0)"/>
<path d="" fill="#1B3452" transform="translate(0,0)"/>
<path d="" fill="#0C1B35" transform="translate(0,0)"/>
<path d="" fill="#1D2F40" transform="translate(0,0)"/>
<path d="" fill="#1F3041" transform="translate(0,0)"/>
<path d="" fill="#161C22" transform="translate(0,0)"/>
<path d="" fill="#1A324D" transform="translate(0,0)"/>
<path d="" fill="#10203B" transform="translate(0,0)"/>
<path d="" fill="#1D2F41" transform="translate(0,0)"/>
<path d="" fill="#1A314C" transform="translate(0,0)"/>
<path d="" fill="#080F24" transform="translate(0,0)"/>
<path d="" fill="#1D3551" transform="translate(0,0)"/>
<path d="" fill="#1C2B3B" transform="translate(0,0)"/>
<path d="" fill="#1D2935" transform="translate(0,0)"/>
<path d="" fill="#1A314C" transform="translate(0,0)"/>
<path d="" fill="#192F49" transform="translate(0,0)"/>
<path d="" fill="#1A324D" transform="translate(0,0)"/>
<path d="" fill="#12233D" transform="translate(0,0)"/>
<path d="" fill="#0B182F" transform="translate(0,0)"/>
<path d="" fill="#1D2E3F" transform="translate(0,0)"/>
<path d="" fill="#071027" transform="translate(0,0)"/>
<path d="" fill="#192F49" transform="translate(0,0)"/>
<path d="" fill="#1C344F" transform="translate(0,0)"/>
<path d="" fill="#1B324D" transform="translate(0,0)"/>
<path d="" fill="#1B324D" transform="translate(0,0)"/>
<path d="" fill="#192F49" transform="translate(0,0)"/>
<path d="" fill="#1C3551" transform="translate(0,0)"/>
<path d="" fill="#0D2542" transform="translate(0,0)"/>
<path d="" fill="#1E3754" transform="translate(0,0)"/>
<path d="" fill="#1C334E" transform="translate(0,0)"/>
<path d="" fill="#1B334D" transform="translate(0,0)"/>
<path d="" fill="#1D3551" transform="translate(0,0)"/>
<path d="" fill="#1D2D3E" transform="translate(0,0)"/>
<path d="" fill="#1B314A" transform="translate(0,0)"/>
<path d="" fill="#213243" transform="translate(0,0)"/>
<path d="" fill="#141A1F" transform="translate(0,0)"/>
<path d="" fill="#1C2A36" transform="translate(0,0)"/>
<path d="" fill="#233B57" transform="translate(0,0)"/>
<path d="" fill="#1F2E3C" transform="translate(0,0)"/>
<path d="" fill="#1A314C" transform="translate(0,0)"/>
<path d="" fill="#1A334E" transform="translate(0,0)"/>
<path d="" fill="#0C1428" transform="translate(0,0)"/>
<path d="" fill="#1A334E" transform="translate(0,0)"/>
<path d="" fill="#193049" transform="translate(0,0)"/>
<path d="" fill="#0D182E" transform="translate(0,0)"/>
<path d="" fill="#193049" transform="translate(0,0)"/>
<path d="" fill="#1D3045" transform="translate(0,0)"/>
<path d="" fill="#0D1218" transform="translate(0,0)"/>
<path d="" fill="#1E2C39" transform="translate(0,0)"/>
<path d="" fill="#071128" transform="translate(0,0)"/>
<path d="" fill="#1A314C" transform="translate(0,0)"/>
<path d="" fill="#1E2C39" transform="translate(0,0)"/>
<path d="" fill="#23313C" transform="translate(0,0)"/>
<path d="" fill="#1A314C" transform="translate(0,0)"/>
<path d="" fill="#1A2F47" transform="translate(0,0)"/>
<path d="" fill="#253748" transform="translate(0,0)"/>
<path d="" fill="#1C2A38" transform="translate(0,0)"/>
<path d="" fill="#263643" transform="translate(0,0)"/>
<path d="" fill="#263744" transform="translate(0,0)"/>
<path d="" fill="#0B1219" transform="translate(0,0)"/>
<path d="" fill="#2A3F4F" transform="translate(0,0)"/>
<path d="" fill="#263A48" transform="translate(0,0)"/>
<path d="" fill="#2A4051" transform="translate(0,0)"/>
<path d="" fill="#2B4355" transform="translate(0,0)"/>
<path d="" fill="#18222A" transform="translate(0,0)"/>
<path d="" fill="#2F4A5E" transform="translate(0,0)"/>
<path d="" fill="#23465E" transform="translate(0,0)"/>
<path d="" fill="#335269" transform="translate(0,0)"/>
<path d="" fill="#304D62" transform="translate(0,0)"/>
<path d="" fill="#315168" transform="translate(0,0)"/>
<path d="" fill="#324F65" transform="translate(0,0)"/>
<path d="" fill="#376381" transform="translate(0,0)"/>
<path d="" fill="#355F7C" transform="translate(0,0)"/>
<path d="" fill="#396685" transform="translate(0,0)"/>
<path d="" fill="#33536A" transform="translate(0,0)"/>
<path d="" fill="#33526A" transform="translate(0,0)"/>
<path d="" fill="#122230" transform="translate(0,0)"/>
<path d="" fill="#36617E" transform="translate(0,0)"/>
<path d="" fill="#325C79" transform="translate(0,0)"/>
<path d="" fill="#203C52" transform="translate(0,0)"/>
<path d="" fill="#0F1C2A" transform="translate(0,0)"/>
<path d="" fill="#234B6B" transform="translate(0,0)"/>
<path d="" fill="#355770" transform="translate(0,0)"/>
<path d="" fill="#3B627E" transform="translate(0,0)"/>
<path d="" fill="#314F66" transform="translate(0,0)"/>
<path d="" fill="#2F5876" transform="translate(0,0)"/>
<path d="" fill="#345B76" transform="translate(0,0)"/>
<path d="" fill="#2E3D49" transform="translate(0,0)"/>
<path d="" fill="#161D23" transform="translate(0,0)"/>
<path d="" fill="#2C4557" transform="translate(0,0)"/>
<path d="" fill="#202A32" transform="translate(0,0)"/>
<path d="" fill="#182027" transform="translate(0,0)"/>
<path d="" fill="#202B32" transform="translate(0,0)"/>
<path d="" fill="#111619" transform="translate(0,0)"/>
<path d="" fill="#14202A" transform="translate(0,0)"/>
<path d="" fill="#1E282F" transform="translate(0,0)"/>
<path d="" fill="#417093" transform="translate(0,0)"/>
<path d="" fill="#13191E" transform="translate(0,0)"/>
<path d="" fill="#090E14" transform="translate(0,0)"/>
<path d="" fill="#1E282F" transform="translate(0,0)"/>
<path d="" fill="#304E64" transform="translate(0,0)"/>
<path d="" fill="#202A32" transform="translate(0,0)"/>
<path d="" fill="#13171B" transform="translate(0,0)"/>
<path d="" fill="#202A32" transform="translate(0,0)"/>
<path d="" fill="#070E13" transform="translate(0,0)"/>
<path d="" fill="#2F4A5E" transform="translate(0,0)"/>
<path d="" fill="#1F3341" transform="translate(0,0)"/>
<path d="" fill="#2E495D" transform="translate(0,0)"/>
<path d="" fill="#355A75" transform="translate(0,0)"/>
</svg>
